<mxfile host="app.diagrams.net" modified="2023-08-09T17:00:49.811Z" agent="Mozilla/5.0 (Windows NT 10.0; Win64; x64) AppleWebKit/537.36 (KHTML, like Gecko) Chrome/114.0.0.0 Safari/537.36 Edg/114.0.1823.82" etag="AeT9lIYSUEkDJ645Adv9" version="21.6.7" type="device" pages="2">
  <diagram name="Page-1" id="9KNTCKVvGkYwdxIUQWlA">
    <mxGraphModel dx="996" dy="669" grid="1" gridSize="10" guides="1" tooltips="1" connect="1" arrows="1" fold="1" page="1" pageScale="1" pageWidth="850" pageHeight="1100" math="0" shadow="0">
      <root>
        <mxCell id="0" />
        <mxCell id="1" parent="0" />
        <mxCell id="j6lNTGndd61qdBKRGCpg-40" style="edgeStyle=orthogonalEdgeStyle;rounded=0;orthogonalLoop=1;jettySize=auto;html=1;exitX=0.5;exitY=1;exitDx=0;exitDy=0;entryX=0.5;entryY=0;entryDx=0;entryDy=0;" parent="1" source="j6lNTGndd61qdBKRGCpg-1" target="j6lNTGndd61qdBKRGCpg-39" edge="1">
          <mxGeometry relative="1" as="geometry" />
        </mxCell>
        <mxCell id="j6lNTGndd61qdBKRGCpg-1" value="US1: Array of Articles&lt;br&gt;on main page" style="rounded=1;whiteSpace=wrap;html=1;" parent="1" vertex="1">
          <mxGeometry x="310" y="150" width="120" height="60" as="geometry" />
        </mxCell>
        <mxCell id="j6lNTGndd61qdBKRGCpg-6" style="edgeStyle=orthogonalEdgeStyle;rounded=0;orthogonalLoop=1;jettySize=auto;html=1;exitX=0.5;exitY=1;exitDx=0;exitDy=0;entryX=0.5;entryY=0;entryDx=0;entryDy=0;" parent="1" source="j6lNTGndd61qdBKRGCpg-2" target="j6lNTGndd61qdBKRGCpg-5" edge="1">
          <mxGeometry relative="1" as="geometry" />
        </mxCell>
        <mxCell id="j6lNTGndd61qdBKRGCpg-2" value="US2: Referrals Sign Up" style="rounded=1;whiteSpace=wrap;html=1;" parent="1" vertex="1">
          <mxGeometry x="1510" y="150" width="120" height="60" as="geometry" />
        </mxCell>
        <mxCell id="j6lNTGndd61qdBKRGCpg-3" value="US: Can filter videos" style="rounded=1;whiteSpace=wrap;html=1;" parent="1" vertex="1">
          <mxGeometry x="520" y="580" width="120" height="60" as="geometry" />
        </mxCell>
        <mxCell id="j6lNTGndd61qdBKRGCpg-4" value="US: ??? Can resume where user left off ???" style="rounded=1;whiteSpace=wrap;html=1;" parent="1" vertex="1">
          <mxGeometry x="520" y="660" width="120" height="60" as="geometry" />
        </mxCell>
        <mxCell id="j6lNTGndd61qdBKRGCpg-5" value="New Sign Up Page" style="rounded=1;whiteSpace=wrap;html=1;" parent="1" vertex="1">
          <mxGeometry x="1510" y="260" width="120" height="60" as="geometry" />
        </mxCell>
        <mxCell id="j6lNTGndd61qdBKRGCpg-8" style="edgeStyle=orthogonalEdgeStyle;rounded=0;orthogonalLoop=1;jettySize=auto;html=1;exitX=0.5;exitY=1;exitDx=0;exitDy=0;entryX=0.5;entryY=0;entryDx=0;entryDy=0;" parent="1" source="j6lNTGndd61qdBKRGCpg-7" target="j6lNTGndd61qdBKRGCpg-1" edge="1">
          <mxGeometry relative="1" as="geometry" />
        </mxCell>
        <mxCell id="j6lNTGndd61qdBKRGCpg-41" style="edgeStyle=orthogonalEdgeStyle;rounded=0;orthogonalLoop=1;jettySize=auto;html=1;exitX=0.75;exitY=1;exitDx=0;exitDy=0;entryX=0.5;entryY=0;entryDx=0;entryDy=0;" parent="1" source="j6lNTGndd61qdBKRGCpg-7" target="j6lNTGndd61qdBKRGCpg-38" edge="1">
          <mxGeometry relative="1" as="geometry" />
        </mxCell>
        <mxCell id="j6lNTGndd61qdBKRGCpg-45" style="edgeStyle=orthogonalEdgeStyle;rounded=0;orthogonalLoop=1;jettySize=auto;html=1;exitX=1;exitY=1;exitDx=0;exitDy=0;entryX=0.5;entryY=0;entryDx=0;entryDy=0;" parent="1" source="j6lNTGndd61qdBKRGCpg-7" target="j6lNTGndd61qdBKRGCpg-44" edge="1">
          <mxGeometry relative="1" as="geometry" />
        </mxCell>
        <mxCell id="j6lNTGndd61qdBKRGCpg-47" style="edgeStyle=orthogonalEdgeStyle;rounded=0;orthogonalLoop=1;jettySize=auto;html=1;exitX=1;exitY=0.75;exitDx=0;exitDy=0;entryX=0.5;entryY=0;entryDx=0;entryDy=0;" parent="1" source="j6lNTGndd61qdBKRGCpg-7" target="j6lNTGndd61qdBKRGCpg-46" edge="1">
          <mxGeometry relative="1" as="geometry" />
        </mxCell>
        <mxCell id="j6lNTGndd61qdBKRGCpg-51" style="edgeStyle=orthogonalEdgeStyle;rounded=0;orthogonalLoop=1;jettySize=auto;html=1;exitX=1;exitY=0.5;exitDx=0;exitDy=0;" parent="1" source="j6lNTGndd61qdBKRGCpg-7" target="j6lNTGndd61qdBKRGCpg-50" edge="1">
          <mxGeometry relative="1" as="geometry" />
        </mxCell>
        <mxCell id="j6lNTGndd61qdBKRGCpg-7" value="Epic: Home Page" style="rounded=1;whiteSpace=wrap;html=1;" parent="1" vertex="1">
          <mxGeometry x="310" y="50" width="120" height="60" as="geometry" />
        </mxCell>
        <mxCell id="j6lNTGndd61qdBKRGCpg-9" value="US: Search for videos" style="rounded=1;whiteSpace=wrap;html=1;" parent="1" vertex="1">
          <mxGeometry x="670" y="660" width="120" height="60" as="geometry" />
        </mxCell>
        <mxCell id="j6lNTGndd61qdBKRGCpg-10" value="US: See what new vids are added" style="rounded=1;whiteSpace=wrap;html=1;" parent="1" vertex="1">
          <mxGeometry x="670" y="580" width="120" height="60" as="geometry" />
        </mxCell>
        <mxCell id="j6lNTGndd61qdBKRGCpg-11" value="US: See related resources under each video" style="rounded=1;whiteSpace=wrap;html=1;" parent="1" vertex="1">
          <mxGeometry x="520" y="740" width="120" height="60" as="geometry" />
        </mxCell>
        <mxCell id="j6lNTGndd61qdBKRGCpg-14" style="edgeStyle=orthogonalEdgeStyle;rounded=0;orthogonalLoop=1;jettySize=auto;html=1;exitX=0.5;exitY=1;exitDx=0;exitDy=0;entryX=0.5;entryY=0;entryDx=0;entryDy=0;" parent="1" source="j6lNTGndd61qdBKRGCpg-12" target="j6lNTGndd61qdBKRGCpg-13" edge="1">
          <mxGeometry relative="1" as="geometry" />
        </mxCell>
        <mxCell id="j6lNTGndd61qdBKRGCpg-12" value="US: Rate experience on CVP platform" style="rounded=1;whiteSpace=wrap;html=1;" parent="1" vertex="1">
          <mxGeometry x="50" y="580" width="120" height="60" as="geometry" />
        </mxCell>
        <mxCell id="j6lNTGndd61qdBKRGCpg-13" value="Pop-up to ask qns about CVP platform" style="rounded=1;whiteSpace=wrap;html=1;" parent="1" vertex="1">
          <mxGeometry x="50" y="660" width="120" height="60" as="geometry" />
        </mxCell>
        <mxCell id="j6lNTGndd61qdBKRGCpg-17" style="edgeStyle=orthogonalEdgeStyle;rounded=0;orthogonalLoop=1;jettySize=auto;html=1;exitX=0.5;exitY=1;exitDx=0;exitDy=0;entryX=0.5;entryY=0;entryDx=0;entryDy=0;" parent="1" source="j6lNTGndd61qdBKRGCpg-15" target="j6lNTGndd61qdBKRGCpg-16" edge="1">
          <mxGeometry relative="1" as="geometry" />
        </mxCell>
        <mxCell id="j6lNTGndd61qdBKRGCpg-15" value="See Profile (thru click profile button)" style="rounded=1;whiteSpace=wrap;html=1;" parent="1" vertex="1">
          <mxGeometry x="20" y="50" width="120" height="60" as="geometry" />
        </mxCell>
        <mxCell id="j6lNTGndd61qdBKRGCpg-16" value="Page shows&lt;br&gt;- Name&lt;br&gt;- Church/Org&lt;br&gt;- Email" style="rounded=1;whiteSpace=wrap;html=1;" parent="1" vertex="1">
          <mxGeometry x="20" y="160" width="120" height="60" as="geometry" />
        </mxCell>
        <mxCell id="j6lNTGndd61qdBKRGCpg-20" style="edgeStyle=orthogonalEdgeStyle;rounded=0;orthogonalLoop=1;jettySize=auto;html=1;exitX=0.5;exitY=1;exitDx=0;exitDy=0;entryX=0.5;entryY=0;entryDx=0;entryDy=0;" parent="1" source="j6lNTGndd61qdBKRGCpg-18" target="j6lNTGndd61qdBKRGCpg-19" edge="1">
          <mxGeometry relative="1" as="geometry" />
        </mxCell>
        <mxCell id="j6lNTGndd61qdBKRGCpg-18" value="Update Profile (thru Update profile button)" style="rounded=1;whiteSpace=wrap;html=1;" parent="1" vertex="1">
          <mxGeometry x="150" y="50" width="120" height="60" as="geometry" />
        </mxCell>
        <mxCell id="j6lNTGndd61qdBKRGCpg-19" value="Page updates&lt;br&gt;- Email only (depend whether possible on backend)" style="rounded=1;whiteSpace=wrap;html=1;" parent="1" vertex="1">
          <mxGeometry x="150" y="160" width="120" height="60" as="geometry" />
        </mxCell>
        <mxCell id="j6lNTGndd61qdBKRGCpg-21" value="US: Download complementary resources" style="rounded=1;whiteSpace=wrap;html=1;" parent="1" vertex="1">
          <mxGeometry x="210" y="580" width="120" height="60" as="geometry" />
        </mxCell>
        <mxCell id="j6lNTGndd61qdBKRGCpg-22" value="US: See &amp;amp; Select chapters for videos" style="rounded=1;whiteSpace=wrap;html=1;" parent="1" vertex="1">
          <mxGeometry x="670" y="740" width="120" height="60" as="geometry" />
        </mxCell>
        <mxCell id="j6lNTGndd61qdBKRGCpg-23" value="US: Referrals Sign Up Account" style="rounded=1;whiteSpace=wrap;html=1;" parent="1" vertex="1">
          <mxGeometry x="350" y="580" width="120" height="60" as="geometry" />
        </mxCell>
        <mxCell id="j6lNTGndd61qdBKRGCpg-28" style="edgeStyle=orthogonalEdgeStyle;rounded=0;orthogonalLoop=1;jettySize=auto;html=1;exitX=0.5;exitY=1;exitDx=0;exitDy=0;entryX=0.5;entryY=0;entryDx=0;entryDy=0;" parent="1" source="j6lNTGndd61qdBKRGCpg-23" target="j6lNTGndd61qdBKRGCpg-25" edge="1">
          <mxGeometry relative="1" as="geometry">
            <mxPoint x="410" y="700" as="sourcePoint" />
          </mxGeometry>
        </mxCell>
        <mxCell id="j6lNTGndd61qdBKRGCpg-30" style="edgeStyle=orthogonalEdgeStyle;rounded=0;orthogonalLoop=1;jettySize=auto;html=1;exitX=0.5;exitY=1;exitDx=0;exitDy=0;entryX=0.5;entryY=0;entryDx=0;entryDy=0;" parent="1" source="j6lNTGndd61qdBKRGCpg-25" target="j6lNTGndd61qdBKRGCpg-26" edge="1">
          <mxGeometry relative="1" as="geometry" />
        </mxCell>
        <mxCell id="j6lNTGndd61qdBKRGCpg-25" value="Click &quot;Sign up for an account&quot; button" style="rounded=1;whiteSpace=wrap;html=1;" parent="1" vertex="1">
          <mxGeometry x="350" y="660" width="120" height="60" as="geometry" />
        </mxCell>
        <mxCell id="j6lNTGndd61qdBKRGCpg-26" value="Page - Inputs:&lt;br&gt;- Name&lt;br&gt;- Email&lt;br&gt;- Church/Org&lt;br&gt;- Referral Code" style="rounded=1;whiteSpace=wrap;html=1;" parent="1" vertex="1">
          <mxGeometry x="350" y="750" width="120" height="90" as="geometry" />
        </mxCell>
        <mxCell id="j6lNTGndd61qdBKRGCpg-33" style="edgeStyle=orthogonalEdgeStyle;rounded=0;orthogonalLoop=1;jettySize=auto;html=1;exitX=0.5;exitY=1;exitDx=0;exitDy=0;entryX=0.5;entryY=0;entryDx=0;entryDy=0;" parent="1" source="j6lNTGndd61qdBKRGCpg-31" target="j6lNTGndd61qdBKRGCpg-32" edge="1">
          <mxGeometry relative="1" as="geometry" />
        </mxCell>
        <mxCell id="j6lNTGndd61qdBKRGCpg-31" value="US: Choose Audio Track for video" style="rounded=1;whiteSpace=wrap;html=1;" parent="1" vertex="1">
          <mxGeometry x="520" y="820" width="120" height="60" as="geometry" />
        </mxCell>
        <mxCell id="j6lNTGndd61qdBKRGCpg-36" style="edgeStyle=orthogonalEdgeStyle;rounded=0;orthogonalLoop=1;jettySize=auto;html=1;exitX=0.5;exitY=1;exitDx=0;exitDy=0;entryX=0.5;entryY=0;entryDx=0;entryDy=0;" parent="1" source="j6lNTGndd61qdBKRGCpg-32" target="j6lNTGndd61qdBKRGCpg-34" edge="1">
          <mxGeometry relative="1" as="geometry" />
        </mxCell>
        <mxCell id="j6lNTGndd61qdBKRGCpg-32" value="Support LiveVoice?" style="rounded=1;whiteSpace=wrap;html=1;" parent="1" vertex="1">
          <mxGeometry x="520" y="920" width="120" height="60" as="geometry" />
        </mxCell>
        <mxCell id="j6lNTGndd61qdBKRGCpg-34" value="Separate button?" style="rounded=1;whiteSpace=wrap;html=1;" parent="1" vertex="1">
          <mxGeometry x="520" y="1020" width="120" height="60" as="geometry" />
        </mxCell>
        <mxCell id="j6lNTGndd61qdBKRGCpg-37" value="US: Referrak share video link" style="rounded=1;whiteSpace=wrap;html=1;" parent="1" vertex="1">
          <mxGeometry x="670" y="820" width="120" height="60" as="geometry" />
        </mxCell>
        <mxCell id="j6lNTGndd61qdBKRGCpg-43" style="edgeStyle=orthogonalEdgeStyle;rounded=0;orthogonalLoop=1;jettySize=auto;html=1;entryX=0.5;entryY=0;entryDx=0;entryDy=0;" parent="1" source="j6lNTGndd61qdBKRGCpg-38" target="j6lNTGndd61qdBKRGCpg-42" edge="1">
          <mxGeometry relative="1" as="geometry" />
        </mxCell>
        <mxCell id="j6lNTGndd61qdBKRGCpg-38" value="US2: Array of Vids &amp;amp; Articles on main page" style="rounded=1;whiteSpace=wrap;html=1;" parent="1" vertex="1">
          <mxGeometry x="460" y="150" width="120" height="60" as="geometry" />
        </mxCell>
        <mxCell id="j6lNTGndd61qdBKRGCpg-39" value="Click article thumbnail - go to external website" style="rounded=1;whiteSpace=wrap;html=1;" parent="1" vertex="1">
          <mxGeometry x="310" y="240" width="120" height="60" as="geometry" />
        </mxCell>
        <mxCell id="j6lNTGndd61qdBKRGCpg-42" value="Vids &amp;amp; articles sorted by headers" style="rounded=1;whiteSpace=wrap;html=1;" parent="1" vertex="1">
          <mxGeometry x="460" y="240" width="120" height="60" as="geometry" />
        </mxCell>
        <mxCell id="j6lNTGndd61qdBKRGCpg-44" value="US3: Mouse Scroll through Array of videos" style="rounded=1;whiteSpace=wrap;html=1;" parent="1" vertex="1">
          <mxGeometry x="600" y="150" width="120" height="60" as="geometry" />
        </mxCell>
        <mxCell id="j6lNTGndd61qdBKRGCpg-49" style="edgeStyle=orthogonalEdgeStyle;rounded=0;orthogonalLoop=1;jettySize=auto;html=1;exitX=0.5;exitY=1;exitDx=0;exitDy=0;entryX=0.5;entryY=0;entryDx=0;entryDy=0;" parent="1" source="j6lNTGndd61qdBKRGCpg-46" target="j6lNTGndd61qdBKRGCpg-48" edge="1">
          <mxGeometry relative="1" as="geometry" />
        </mxCell>
        <mxCell id="j6lNTGndd61qdBKRGCpg-46" value="US4: See featured videos" style="rounded=1;whiteSpace=wrap;html=1;" parent="1" vertex="1">
          <mxGeometry x="740" y="150" width="120" height="60" as="geometry" />
        </mxCell>
        <mxCell id="j6lNTGndd61qdBKRGCpg-48" value="Rotates between 5 thumbnails (like Netflix)" style="rounded=1;whiteSpace=wrap;html=1;" parent="1" vertex="1">
          <mxGeometry x="740" y="240" width="120" height="60" as="geometry" />
        </mxCell>
        <mxCell id="j6lNTGndd61qdBKRGCpg-50" value="US5: Referrals ALSO have ALL content access" style="rounded=1;whiteSpace=wrap;html=1;" parent="1" vertex="1">
          <mxGeometry x="880" y="150" width="120" height="60" as="geometry" />
        </mxCell>
        <mxCell id="j6lNTGndd61qdBKRGCpg-54" style="edgeStyle=orthogonalEdgeStyle;rounded=0;orthogonalLoop=1;jettySize=auto;html=1;exitX=0.5;exitY=1;exitDx=0;exitDy=0;entryX=0.5;entryY=0;entryDx=0;entryDy=0;" parent="1" source="j6lNTGndd61qdBKRGCpg-52" target="j6lNTGndd61qdBKRGCpg-53" edge="1">
          <mxGeometry relative="1" as="geometry" />
        </mxCell>
        <mxCell id="-bn3LLsLPhw9iL3FSvrC-1" style="edgeStyle=orthogonalEdgeStyle;rounded=0;orthogonalLoop=1;jettySize=auto;html=1;exitX=0.75;exitY=1;exitDx=0;exitDy=0;entryX=0.5;entryY=0;entryDx=0;entryDy=0;" parent="1" source="j6lNTGndd61qdBKRGCpg-52" target="j6lNTGndd61qdBKRGCpg-2" edge="1">
          <mxGeometry relative="1" as="geometry" />
        </mxCell>
        <mxCell id="j6lNTGndd61qdBKRGCpg-52" value="Epic: Login" style="rounded=1;whiteSpace=wrap;html=1;" parent="1" vertex="1">
          <mxGeometry x="1070" y="30" width="120" height="60" as="geometry" />
        </mxCell>
        <mxCell id="j6lNTGndd61qdBKRGCpg-56" style="edgeStyle=orthogonalEdgeStyle;rounded=0;orthogonalLoop=1;jettySize=auto;html=1;exitX=0.5;exitY=1;exitDx=0;exitDy=0;entryX=0.5;entryY=0;entryDx=0;entryDy=0;" parent="1" source="j6lNTGndd61qdBKRGCpg-53" target="j6lNTGndd61qdBKRGCpg-55" edge="1">
          <mxGeometry relative="1" as="geometry" />
        </mxCell>
        <mxCell id="j6lNTGndd61qdBKRGCpg-58" style="edgeStyle=orthogonalEdgeStyle;rounded=0;orthogonalLoop=1;jettySize=auto;html=1;exitX=0.75;exitY=1;exitDx=0;exitDy=0;entryX=0.5;entryY=0;entryDx=0;entryDy=0;" parent="1" source="j6lNTGndd61qdBKRGCpg-53" target="j6lNTGndd61qdBKRGCpg-57" edge="1">
          <mxGeometry relative="1" as="geometry" />
        </mxCell>
        <mxCell id="j6lNTGndd61qdBKRGCpg-60" style="edgeStyle=orthogonalEdgeStyle;rounded=0;orthogonalLoop=1;jettySize=auto;html=1;exitX=1;exitY=1;exitDx=0;exitDy=0;entryX=0.5;entryY=0;entryDx=0;entryDy=0;" parent="1" source="j6lNTGndd61qdBKRGCpg-53" target="j6lNTGndd61qdBKRGCpg-59" edge="1">
          <mxGeometry relative="1" as="geometry" />
        </mxCell>
        <mxCell id="j6lNTGndd61qdBKRGCpg-53" value="US1: Delegate Login: Correct email + correct OTP via email" style="rounded=1;whiteSpace=wrap;html=1;" parent="1" vertex="1">
          <mxGeometry x="1070" y="150" width="120" height="60" as="geometry" />
        </mxCell>
        <mxCell id="j6lNTGndd61qdBKRGCpg-55" value="New copy (page?) - About CVP: What, Why, Sharing to" style="rounded=1;whiteSpace=wrap;html=1;" parent="1" vertex="1">
          <mxGeometry x="1070" y="260" width="120" height="60" as="geometry" />
        </mxCell>
        <mxCell id="j6lNTGndd61qdBKRGCpg-57" value="Block CVP users from GenS Conf App" style="rounded=1;whiteSpace=wrap;html=1;" parent="1" vertex="1">
          <mxGeometry x="1220" y="260" width="120" height="60" as="geometry" />
        </mxCell>
        <mxCell id="j6lNTGndd61qdBKRGCpg-59" value="Separate auth0 Sign-in page" style="rounded=1;whiteSpace=wrap;html=1;" parent="1" vertex="1">
          <mxGeometry x="1370" y="260" width="120" height="60" as="geometry" />
        </mxCell>
        <mxCell id="j6lNTGndd61qdBKRGCpg-64" style="edgeStyle=orthogonalEdgeStyle;rounded=0;orthogonalLoop=1;jettySize=auto;html=1;exitX=0.5;exitY=1;exitDx=0;exitDy=0;entryX=0.5;entryY=0;entryDx=0;entryDy=0;" parent="1" source="j6lNTGndd61qdBKRGCpg-61" target="j6lNTGndd61qdBKRGCpg-63" edge="1">
          <mxGeometry relative="1" as="geometry">
            <mxPoint x="950" y="470" as="targetPoint" />
          </mxGeometry>
        </mxCell>
        <mxCell id="j6lNTGndd61qdBKRGCpg-69" style="edgeStyle=orthogonalEdgeStyle;rounded=0;orthogonalLoop=1;jettySize=auto;html=1;exitX=0.75;exitY=1;exitDx=0;exitDy=0;entryX=0.5;entryY=0;entryDx=0;entryDy=0;" parent="1" source="j6lNTGndd61qdBKRGCpg-61" target="j6lNTGndd61qdBKRGCpg-66" edge="1">
          <mxGeometry relative="1" as="geometry" />
        </mxCell>
        <mxCell id="j6lNTGndd61qdBKRGCpg-71" style="edgeStyle=orthogonalEdgeStyle;rounded=0;orthogonalLoop=1;jettySize=auto;html=1;exitX=1;exitY=1;exitDx=0;exitDy=0;entryX=0.5;entryY=0;entryDx=0;entryDy=0;" parent="1" source="j6lNTGndd61qdBKRGCpg-61" target="j6lNTGndd61qdBKRGCpg-70" edge="1">
          <mxGeometry relative="1" as="geometry" />
        </mxCell>
        <mxCell id="j6lNTGndd61qdBKRGCpg-73" style="edgeStyle=orthogonalEdgeStyle;rounded=0;orthogonalLoop=1;jettySize=auto;html=1;exitX=1;exitY=0.75;exitDx=0;exitDy=0;entryX=0.5;entryY=0;entryDx=0;entryDy=0;" parent="1" source="j6lNTGndd61qdBKRGCpg-61" target="j6lNTGndd61qdBKRGCpg-72" edge="1">
          <mxGeometry relative="1" as="geometry" />
        </mxCell>
        <mxCell id="j6lNTGndd61qdBKRGCpg-77" style="edgeStyle=orthogonalEdgeStyle;rounded=0;orthogonalLoop=1;jettySize=auto;html=1;exitX=1;exitY=0.5;exitDx=0;exitDy=0;entryX=0.5;entryY=0;entryDx=0;entryDy=0;" parent="1" source="j6lNTGndd61qdBKRGCpg-61" target="j6lNTGndd61qdBKRGCpg-76" edge="1">
          <mxGeometry relative="1" as="geometry" />
        </mxCell>
        <mxCell id="j6lNTGndd61qdBKRGCpg-61" value="Epic: Video Page" style="rounded=1;whiteSpace=wrap;html=1;" parent="1" vertex="1">
          <mxGeometry x="890" y="370" width="120" height="60" as="geometry" />
        </mxCell>
        <mxCell id="j6lNTGndd61qdBKRGCpg-63" value="US1: Video starts playing after click on vid thumbnail from home page" style="rounded=1;whiteSpace=wrap;html=1;" parent="1" vertex="1">
          <mxGeometry x="890" y="470" width="120" height="60" as="geometry" />
        </mxCell>
        <mxCell id="j6lNTGndd61qdBKRGCpg-68" style="edgeStyle=orthogonalEdgeStyle;rounded=0;orthogonalLoop=1;jettySize=auto;html=1;exitX=0.5;exitY=1;exitDx=0;exitDy=0;entryX=0.5;entryY=0;entryDx=0;entryDy=0;" parent="1" source="j6lNTGndd61qdBKRGCpg-66" target="j6lNTGndd61qdBKRGCpg-67" edge="1">
          <mxGeometry relative="1" as="geometry" />
        </mxCell>
        <mxCell id="j6lNTGndd61qdBKRGCpg-66" value="US2: Choose closed captions" style="rounded=1;whiteSpace=wrap;html=1;" parent="1" vertex="1">
          <mxGeometry x="1040" y="470" width="120" height="60" as="geometry" />
        </mxCell>
        <mxCell id="j6lNTGndd61qdBKRGCpg-67" value="When click button, List of langs, including OFF" style="rounded=1;whiteSpace=wrap;html=1;" parent="1" vertex="1">
          <mxGeometry x="1040" y="560" width="120" height="60" as="geometry" />
        </mxCell>
        <mxCell id="j6lNTGndd61qdBKRGCpg-70" value="US3: Change playback speed" style="rounded=1;whiteSpace=wrap;html=1;" parent="1" vertex="1">
          <mxGeometry x="1180" y="470" width="120" height="60" as="geometry" />
        </mxCell>
        <mxCell id="j6lNTGndd61qdBKRGCpg-72" value="US4: Share video link (User shown URL link to copy)" style="rounded=1;whiteSpace=wrap;html=1;" parent="1" vertex="1">
          <mxGeometry x="1320" y="470" width="120" height="60" as="geometry" />
        </mxCell>
        <mxCell id="j6lNTGndd61qdBKRGCpg-79" style="edgeStyle=orthogonalEdgeStyle;rounded=0;orthogonalLoop=1;jettySize=auto;html=1;exitX=0.5;exitY=1;exitDx=0;exitDy=0;entryX=0.5;entryY=0;entryDx=0;entryDy=0;" parent="1" source="j6lNTGndd61qdBKRGCpg-76" target="j6lNTGndd61qdBKRGCpg-78" edge="1">
          <mxGeometry relative="1" as="geometry" />
        </mxCell>
        <mxCell id="j6lNTGndd61qdBKRGCpg-76" value="US5: Blurred, paused video if not signed up" style="rounded=1;whiteSpace=wrap;html=1;" parent="1" vertex="1">
          <mxGeometry x="1470" y="470" width="120" height="60" as="geometry" />
        </mxCell>
        <mxCell id="j6lNTGndd61qdBKRGCpg-78" value="Login/Sign in prompt appears in front of blurred video" style="rounded=1;whiteSpace=wrap;html=1;" parent="1" vertex="1">
          <mxGeometry x="1470" y="560" width="120" height="60" as="geometry" />
        </mxCell>
        <mxCell id="0gurJNlzmp-G8fTKZP9D-1" value="User Stories without Epics" style="rounded=1;whiteSpace=wrap;html=1;" parent="1" vertex="1">
          <mxGeometry x="350" y="440" width="120" height="60" as="geometry" />
        </mxCell>
      </root>
    </mxGraphModel>
  </diagram>
  <diagram name="Copy of Page-1" id="KQCnG7qHcjxXJkeBGqGv">
    <mxGraphModel dx="1423" dy="956" grid="1" gridSize="10" guides="1" tooltips="1" connect="1" arrows="1" fold="1" page="1" pageScale="1" pageWidth="850" pageHeight="1100" math="0" shadow="0">
      <root>
        <mxCell id="nKgwXsxSmHK3FOkrXwd4-0" />
        <mxCell id="nKgwXsxSmHK3FOkrXwd4-1" parent="nKgwXsxSmHK3FOkrXwd4-0" />
        <mxCell id="nKgwXsxSmHK3FOkrXwd4-2" style="edgeStyle=orthogonalEdgeStyle;rounded=0;orthogonalLoop=1;jettySize=auto;html=1;exitX=0.5;exitY=1;exitDx=0;exitDy=0;entryX=0.5;entryY=0;entryDx=0;entryDy=0;" parent="nKgwXsxSmHK3FOkrXwd4-1" source="nKgwXsxSmHK3FOkrXwd4-3" target="nKgwXsxSmHK3FOkrXwd4-44" edge="1">
          <mxGeometry relative="1" as="geometry" />
        </mxCell>
        <mxCell id="nKgwXsxSmHK3FOkrXwd4-3" value="US1: Article Panels" style="rounded=1;whiteSpace=wrap;html=1;" parent="nKgwXsxSmHK3FOkrXwd4-1" vertex="1">
          <mxGeometry x="20" y="140" width="120" height="60" as="geometry" />
        </mxCell>
        <mxCell id="nKgwXsxSmHK3FOkrXwd4-4" style="edgeStyle=orthogonalEdgeStyle;rounded=0;orthogonalLoop=1;jettySize=auto;html=1;exitX=0.5;exitY=1;exitDx=0;exitDy=0;entryX=0.5;entryY=0;entryDx=0;entryDy=0;" parent="nKgwXsxSmHK3FOkrXwd4-1" source="nKgwXsxSmHK3FOkrXwd4-5" target="nKgwXsxSmHK3FOkrXwd4-8" edge="1">
          <mxGeometry relative="1" as="geometry" />
        </mxCell>
        <mxCell id="nKgwXsxSmHK3FOkrXwd4-5" value="US5: Referrals Sign Up (Click on link)" style="rounded=1;whiteSpace=wrap;html=1;" parent="nKgwXsxSmHK3FOkrXwd4-1" vertex="1">
          <mxGeometry x="1685" y="150" width="120" height="60" as="geometry" />
        </mxCell>
        <mxCell id="nKgwXsxSmHK3FOkrXwd4-6" value="US9: Can filter videos" style="rounded=1;whiteSpace=wrap;html=1;" parent="nKgwXsxSmHK3FOkrXwd4-1" vertex="1">
          <mxGeometry x="870" y="280" width="120" height="60" as="geometry" />
        </mxCell>
        <mxCell id="nKgwXsxSmHK3FOkrXwd4-7" value="US: Can resume video from where user left off" style="rounded=1;whiteSpace=wrap;html=1;" parent="nKgwXsxSmHK3FOkrXwd4-1" vertex="1">
          <mxGeometry x="1530" y="800" width="120" height="60" as="geometry" />
        </mxCell>
        <mxCell id="nKgwXsxSmHK3FOkrXwd4-8" value="New Sign Up Page" style="rounded=1;whiteSpace=wrap;html=1;" parent="nKgwXsxSmHK3FOkrXwd4-1" vertex="1">
          <mxGeometry x="1685" y="245" width="120" height="60" as="geometry" />
        </mxCell>
        <mxCell id="nKgwXsxSmHK3FOkrXwd4-9" style="edgeStyle=orthogonalEdgeStyle;rounded=0;orthogonalLoop=1;jettySize=auto;html=1;exitX=0;exitY=1;exitDx=0;exitDy=0;entryX=0.5;entryY=0;entryDx=0;entryDy=0;" parent="nKgwXsxSmHK3FOkrXwd4-1" source="nKgwXsxSmHK3FOkrXwd4-14" target="nKgwXsxSmHK3FOkrXwd4-3" edge="1">
          <mxGeometry relative="1" as="geometry">
            <Array as="points">
              <mxPoint x="20" y="130" />
              <mxPoint x="80" y="130" />
            </Array>
          </mxGeometry>
        </mxCell>
        <mxCell id="nKgwXsxSmHK3FOkrXwd4-10" style="edgeStyle=orthogonalEdgeStyle;rounded=0;orthogonalLoop=1;jettySize=auto;html=1;exitX=0.25;exitY=1;exitDx=0;exitDy=0;entryX=0.5;entryY=0;entryDx=0;entryDy=0;" parent="nKgwXsxSmHK3FOkrXwd4-1" source="nKgwXsxSmHK3FOkrXwd4-14" target="nKgwXsxSmHK3FOkrXwd4-43" edge="1">
          <mxGeometry relative="1" as="geometry">
            <Array as="points">
              <mxPoint x="50" y="120" />
              <mxPoint x="230" y="120" />
            </Array>
          </mxGeometry>
        </mxCell>
        <mxCell id="nKgwXsxSmHK3FOkrXwd4-11" style="edgeStyle=orthogonalEdgeStyle;rounded=0;orthogonalLoop=1;jettySize=auto;html=1;exitX=0.5;exitY=1;exitDx=0;exitDy=0;entryX=0.5;entryY=0;entryDx=0;entryDy=0;" parent="nKgwXsxSmHK3FOkrXwd4-1" source="nKgwXsxSmHK3FOkrXwd4-14" target="nKgwXsxSmHK3FOkrXwd4-46" edge="1">
          <mxGeometry relative="1" as="geometry">
            <Array as="points">
              <mxPoint x="80" y="110" />
              <mxPoint x="370" y="110" />
            </Array>
          </mxGeometry>
        </mxCell>
        <mxCell id="nKgwXsxSmHK3FOkrXwd4-12" style="edgeStyle=orthogonalEdgeStyle;rounded=0;orthogonalLoop=1;jettySize=auto;html=1;exitX=1;exitY=1;exitDx=0;exitDy=0;entryX=0.5;entryY=0;entryDx=0;entryDy=0;" parent="nKgwXsxSmHK3FOkrXwd4-1" source="nKgwXsxSmHK3FOkrXwd4-14" target="nKgwXsxSmHK3FOkrXwd4-48" edge="1">
          <mxGeometry relative="1" as="geometry">
            <Array as="points">
              <mxPoint x="500" y="100" />
            </Array>
          </mxGeometry>
        </mxCell>
        <mxCell id="nKgwXsxSmHK3FOkrXwd4-13" style="edgeStyle=orthogonalEdgeStyle;rounded=0;orthogonalLoop=1;jettySize=auto;html=1;exitX=1;exitY=0.5;exitDx=0;exitDy=0;entryX=0.587;entryY=-0.027;entryDx=0;entryDy=0;fillColor=#60a917;strokeColor=#2D7600;entryPerimeter=0;" parent="nKgwXsxSmHK3FOkrXwd4-1" source="nKgwXsxSmHK3FOkrXwd4-14" target="vT0dzgtBVvZX0NIE2-DS-0" edge="1">
          <mxGeometry relative="1" as="geometry" />
        </mxCell>
        <mxCell id="vT0dzgtBVvZX0NIE2-DS-1" style="edgeStyle=orthogonalEdgeStyle;rounded=0;orthogonalLoop=1;jettySize=auto;html=1;exitX=1;exitY=0.75;exitDx=0;exitDy=0;entryX=0.5;entryY=0;entryDx=0;entryDy=0;" parent="nKgwXsxSmHK3FOkrXwd4-1" source="nKgwXsxSmHK3FOkrXwd4-14" target="nKgwXsxSmHK3FOkrXwd4-50" edge="1">
          <mxGeometry relative="1" as="geometry" />
        </mxCell>
        <mxCell id="NYqBKowEck3tmRpVQEfw-0" style="edgeStyle=orthogonalEdgeStyle;rounded=0;orthogonalLoop=1;jettySize=auto;html=1;exitX=1;exitY=0.25;exitDx=0;exitDy=0;entryX=0.5;entryY=0;entryDx=0;entryDy=0;" parent="nKgwXsxSmHK3FOkrXwd4-1" source="nKgwXsxSmHK3FOkrXwd4-14" target="nKgwXsxSmHK3FOkrXwd4-16" edge="1">
          <mxGeometry relative="1" as="geometry" />
        </mxCell>
        <mxCell id="NYqBKowEck3tmRpVQEfw-1" style="edgeStyle=orthogonalEdgeStyle;rounded=0;orthogonalLoop=1;jettySize=auto;html=1;exitX=1;exitY=0;exitDx=0;exitDy=0;entryX=1;entryY=0;entryDx=0;entryDy=0;" parent="nKgwXsxSmHK3FOkrXwd4-1" source="nKgwXsxSmHK3FOkrXwd4-14" target="nKgwXsxSmHK3FOkrXwd4-15" edge="1">
          <mxGeometry relative="1" as="geometry">
            <Array as="points">
              <mxPoint x="970" y="40" />
            </Array>
          </mxGeometry>
        </mxCell>
        <mxCell id="NYqBKowEck3tmRpVQEfw-2" style="edgeStyle=orthogonalEdgeStyle;rounded=0;orthogonalLoop=1;jettySize=auto;html=1;exitX=0.75;exitY=0;exitDx=0;exitDy=0;entryX=1;entryY=0;entryDx=0;entryDy=0;" parent="nKgwXsxSmHK3FOkrXwd4-1" source="nKgwXsxSmHK3FOkrXwd4-14" target="nKgwXsxSmHK3FOkrXwd4-6" edge="1">
          <mxGeometry relative="1" as="geometry">
            <Array as="points">
              <mxPoint x="110" y="30" />
              <mxPoint x="990" y="30" />
            </Array>
          </mxGeometry>
        </mxCell>
        <mxCell id="NYqBKowEck3tmRpVQEfw-5" style="edgeStyle=orthogonalEdgeStyle;rounded=0;orthogonalLoop=1;jettySize=auto;html=1;exitX=0.5;exitY=0;exitDx=0;exitDy=0;entryX=0.5;entryY=0;entryDx=0;entryDy=0;fillColor=#60a917;strokeColor=#2D7600;" parent="nKgwXsxSmHK3FOkrXwd4-1" source="nKgwXsxSmHK3FOkrXwd4-14" target="NYqBKowEck3tmRpVQEfw-3" edge="1">
          <mxGeometry relative="1" as="geometry">
            <Array as="points">
              <mxPoint x="80" y="20" />
              <mxPoint x="1060" y="20" />
            </Array>
          </mxGeometry>
        </mxCell>
        <mxCell id="NYqBKowEck3tmRpVQEfw-6" style="edgeStyle=orthogonalEdgeStyle;rounded=0;orthogonalLoop=1;jettySize=auto;html=1;exitX=0.25;exitY=0;exitDx=0;exitDy=0;entryX=1;entryY=0;entryDx=0;entryDy=0;fillColor=#60a917;strokeColor=#2D7600;" parent="nKgwXsxSmHK3FOkrXwd4-1" source="nKgwXsxSmHK3FOkrXwd4-14" target="NYqBKowEck3tmRpVQEfw-4" edge="1">
          <mxGeometry relative="1" as="geometry">
            <Array as="points">
              <mxPoint x="50" y="10" />
              <mxPoint x="1140" y="10" />
            </Array>
          </mxGeometry>
        </mxCell>
        <mxCell id="nKgwXsxSmHK3FOkrXwd4-14" value="Epic:&lt;br&gt;Home Page" style="rounded=1;whiteSpace=wrap;html=1;" parent="nKgwXsxSmHK3FOkrXwd4-1" vertex="1">
          <mxGeometry x="20" y="40" width="120" height="60" as="geometry" />
        </mxCell>
        <mxCell id="nKgwXsxSmHK3FOkrXwd4-15" value="US8: Search for videos" style="rounded=1;whiteSpace=wrap;html=1;" parent="nKgwXsxSmHK3FOkrXwd4-1" vertex="1">
          <mxGeometry x="850" y="210" width="120" height="60" as="geometry" />
        </mxCell>
        <mxCell id="nKgwXsxSmHK3FOkrXwd4-16" value="US7: See what new vids are added" style="rounded=1;whiteSpace=wrap;html=1;" parent="nKgwXsxSmHK3FOkrXwd4-1" vertex="1">
          <mxGeometry x="830" y="140" width="120" height="60" as="geometry" />
        </mxCell>
        <mxCell id="nKgwXsxSmHK3FOkrXwd4-17" value="See related resources under each video" style="rounded=1;whiteSpace=wrap;html=1;fillColor=#e51400;fontColor=#ffffff;strokeColor=#B20000;" parent="nKgwXsxSmHK3FOkrXwd4-1" vertex="1">
          <mxGeometry x="880" y="890" width="120" height="60" as="geometry" />
        </mxCell>
        <mxCell id="nKgwXsxSmHK3FOkrXwd4-18" style="edgeStyle=orthogonalEdgeStyle;rounded=0;orthogonalLoop=1;jettySize=auto;html=1;exitX=0.5;exitY=1;exitDx=0;exitDy=0;entryX=0.5;entryY=0;entryDx=0;entryDy=0;" parent="nKgwXsxSmHK3FOkrXwd4-1" source="nKgwXsxSmHK3FOkrXwd4-19" target="nKgwXsxSmHK3FOkrXwd4-20" edge="1">
          <mxGeometry relative="1" as="geometry" />
        </mxCell>
        <mxCell id="nKgwXsxSmHK3FOkrXwd4-19" value="US (No Epic): Rate experience on CVP platform" style="rounded=1;whiteSpace=wrap;html=1;" parent="nKgwXsxSmHK3FOkrXwd4-1" vertex="1">
          <mxGeometry x="1845" y="760" width="120" height="60" as="geometry" />
        </mxCell>
        <mxCell id="nKgwXsxSmHK3FOkrXwd4-20" value="Pop-up to ask qns about CVP platform" style="rounded=1;whiteSpace=wrap;html=1;" parent="nKgwXsxSmHK3FOkrXwd4-1" vertex="1">
          <mxGeometry x="1845" y="840" width="120" height="60" as="geometry" />
        </mxCell>
        <mxCell id="nKgwXsxSmHK3FOkrXwd4-21" style="edgeStyle=orthogonalEdgeStyle;rounded=0;orthogonalLoop=1;jettySize=auto;html=1;exitX=0.5;exitY=1;exitDx=0;exitDy=0;entryX=0.5;entryY=0;entryDx=0;entryDy=0;" parent="nKgwXsxSmHK3FOkrXwd4-1" source="nKgwXsxSmHK3FOkrXwd4-22" target="nKgwXsxSmHK3FOkrXwd4-23" edge="1">
          <mxGeometry relative="1" as="geometry" />
        </mxCell>
        <mxCell id="nKgwXsxSmHK3FOkrXwd4-22" value="US1: See Profile (thru click profile button)" style="rounded=1;whiteSpace=wrap;html=1;" parent="nKgwXsxSmHK3FOkrXwd4-1" vertex="1">
          <mxGeometry x="2155" y="560" width="120" height="60" as="geometry" />
        </mxCell>
        <mxCell id="nKgwXsxSmHK3FOkrXwd4-23" value="Page shows&lt;br&gt;- Name&lt;br&gt;- Church/Org&lt;br&gt;- Email" style="rounded=1;whiteSpace=wrap;html=1;" parent="nKgwXsxSmHK3FOkrXwd4-1" vertex="1">
          <mxGeometry x="2155" y="650" width="120" height="60" as="geometry" />
        </mxCell>
        <mxCell id="nKgwXsxSmHK3FOkrXwd4-24" style="edgeStyle=orthogonalEdgeStyle;rounded=0;orthogonalLoop=1;jettySize=auto;html=1;exitX=0.5;exitY=1;exitDx=0;exitDy=0;entryX=0.5;entryY=0;entryDx=0;entryDy=0;" parent="nKgwXsxSmHK3FOkrXwd4-1" source="nKgwXsxSmHK3FOkrXwd4-25" target="nKgwXsxSmHK3FOkrXwd4-26" edge="1">
          <mxGeometry relative="1" as="geometry" />
        </mxCell>
        <mxCell id="nKgwXsxSmHK3FOkrXwd4-25" value="US2: Update Profile (thru Update profile button)" style="rounded=1;whiteSpace=wrap;html=1;" parent="nKgwXsxSmHK3FOkrXwd4-1" vertex="1">
          <mxGeometry x="2285" y="560" width="120" height="60" as="geometry" />
        </mxCell>
        <mxCell id="nKgwXsxSmHK3FOkrXwd4-26" value="Page updates&lt;br&gt;- Email only (depend whether possible on backend)" style="rounded=1;whiteSpace=wrap;html=1;" parent="nKgwXsxSmHK3FOkrXwd4-1" vertex="1">
          <mxGeometry x="2285" y="650" width="120" height="60" as="geometry" />
        </mxCell>
        <mxCell id="nKgwXsxSmHK3FOkrXwd4-27" value="US5: Download complementary resources" style="rounded=1;whiteSpace=wrap;html=1;" parent="nKgwXsxSmHK3FOkrXwd4-1" vertex="1">
          <mxGeometry x="880" y="720" width="120" height="60" as="geometry" />
        </mxCell>
        <mxCell id="vT0dzgtBVvZX0NIE2-DS-10" style="edgeStyle=orthogonalEdgeStyle;rounded=0;orthogonalLoop=1;jettySize=auto;html=1;exitX=0.5;exitY=1;exitDx=0;exitDy=0;entryX=0.5;entryY=0;entryDx=0;entryDy=0;fillColor=#60a917;strokeColor=#2D7600;" parent="nKgwXsxSmHK3FOkrXwd4-1" source="nKgwXsxSmHK3FOkrXwd4-28" target="vT0dzgtBVvZX0NIE2-DS-9" edge="1">
          <mxGeometry relative="1" as="geometry" />
        </mxCell>
        <mxCell id="nKgwXsxSmHK3FOkrXwd4-28" value="US6.1 (Split): See &amp;amp; Select chapters for videos" style="rounded=1;whiteSpace=wrap;html=1;" parent="nKgwXsxSmHK3FOkrXwd4-1" vertex="1">
          <mxGeometry x="880" y="550" width="120" height="60" as="geometry" />
        </mxCell>
        <mxCell id="nKgwXsxSmHK3FOkrXwd4-30" value="Referrals Sign Up Account" style="rounded=1;whiteSpace=wrap;html=1;fillColor=#e51400;fontColor=#ffffff;strokeColor=#B20000;" parent="nKgwXsxSmHK3FOkrXwd4-1" vertex="1">
          <mxGeometry x="1845" y="150" width="120" height="60" as="geometry" />
        </mxCell>
        <mxCell id="nKgwXsxSmHK3FOkrXwd4-31" style="edgeStyle=orthogonalEdgeStyle;rounded=0;orthogonalLoop=1;jettySize=auto;html=1;exitX=0.5;exitY=1;exitDx=0;exitDy=0;entryX=0.5;entryY=0;entryDx=0;entryDy=0;fillColor=#e51400;strokeColor=#B20000;" parent="nKgwXsxSmHK3FOkrXwd4-1" source="nKgwXsxSmHK3FOkrXwd4-30" target="nKgwXsxSmHK3FOkrXwd4-34" edge="1">
          <mxGeometry relative="1" as="geometry">
            <mxPoint x="1905" y="300" as="sourcePoint" />
          </mxGeometry>
        </mxCell>
        <mxCell id="nKgwXsxSmHK3FOkrXwd4-33" style="edgeStyle=orthogonalEdgeStyle;rounded=0;orthogonalLoop=1;jettySize=auto;html=1;exitX=0.5;exitY=1;exitDx=0;exitDy=0;entryX=0.25;entryY=0;entryDx=0;entryDy=0;fillColor=#d80073;strokeColor=#A50040;dashed=1;" parent="nKgwXsxSmHK3FOkrXwd4-1" source="nKgwXsxSmHK3FOkrXwd4-34" target="nKgwXsxSmHK3FOkrXwd4-35" edge="1">
          <mxGeometry relative="1" as="geometry" />
        </mxCell>
        <mxCell id="nKgwXsxSmHK3FOkrXwd4-34" value="Click &quot;Sign up for an account&quot; button" style="rounded=1;whiteSpace=wrap;html=1;fillColor=#e51400;fontColor=#ffffff;strokeColor=#B20000;" parent="nKgwXsxSmHK3FOkrXwd4-1" vertex="1">
          <mxGeometry x="1845" y="245" width="120" height="60" as="geometry" />
        </mxCell>
        <mxCell id="nKgwXsxSmHK3FOkrXwd4-35" value="Page - Inputs:&lt;br&gt;- Name&lt;br&gt;- Email&lt;br&gt;- Church/Org&lt;br&gt;- Referral Code" style="rounded=1;whiteSpace=wrap;html=1;" parent="nKgwXsxSmHK3FOkrXwd4-1" vertex="1">
          <mxGeometry x="2005" y="350" width="120" height="90" as="geometry" />
        </mxCell>
        <mxCell id="nKgwXsxSmHK3FOkrXwd4-36" style="edgeStyle=orthogonalEdgeStyle;rounded=0;orthogonalLoop=1;jettySize=auto;html=1;exitX=0.5;exitY=1;exitDx=0;exitDy=0;entryX=0.5;entryY=0;entryDx=0;entryDy=0;" parent="nKgwXsxSmHK3FOkrXwd4-1" source="nKgwXsxSmHK3FOkrXwd4-37" target="nKgwXsxSmHK3FOkrXwd4-39" edge="1">
          <mxGeometry relative="1" as="geometry" />
        </mxCell>
        <mxCell id="nKgwXsxSmHK3FOkrXwd4-37" value="US7: Choose Audio Track for video" style="rounded=1;whiteSpace=wrap;html=1;" parent="nKgwXsxSmHK3FOkrXwd4-1" vertex="1">
          <mxGeometry x="1155" y="550" width="120" height="60" as="geometry" />
        </mxCell>
        <mxCell id="nKgwXsxSmHK3FOkrXwd4-38" style="edgeStyle=orthogonalEdgeStyle;rounded=0;orthogonalLoop=1;jettySize=auto;html=1;exitX=0.5;exitY=1;exitDx=0;exitDy=0;entryX=0.5;entryY=0;entryDx=0;entryDy=0;" parent="nKgwXsxSmHK3FOkrXwd4-1" source="nKgwXsxSmHK3FOkrXwd4-39" target="nKgwXsxSmHK3FOkrXwd4-40" edge="1">
          <mxGeometry relative="1" as="geometry" />
        </mxCell>
        <mxCell id="nKgwXsxSmHK3FOkrXwd4-39" value="Support LiveVoice?" style="rounded=1;whiteSpace=wrap;html=1;" parent="nKgwXsxSmHK3FOkrXwd4-1" vertex="1">
          <mxGeometry x="1155" y="630" width="120" height="60" as="geometry" />
        </mxCell>
        <mxCell id="nKgwXsxSmHK3FOkrXwd4-40" value="Separate button?" style="rounded=1;whiteSpace=wrap;html=1;" parent="nKgwXsxSmHK3FOkrXwd4-1" vertex="1">
          <mxGeometry x="1155" y="710" width="120" height="60" as="geometry" />
        </mxCell>
        <mxCell id="nKgwXsxSmHK3FOkrXwd4-41" value="US4.2: Referral share video link" style="rounded=1;whiteSpace=wrap;html=1;" parent="nKgwXsxSmHK3FOkrXwd4-1" vertex="1">
          <mxGeometry x="740" y="690" width="120" height="60" as="geometry" />
        </mxCell>
        <mxCell id="nKgwXsxSmHK3FOkrXwd4-42" style="edgeStyle=orthogonalEdgeStyle;rounded=0;orthogonalLoop=1;jettySize=auto;html=1;entryX=0.5;entryY=0;entryDx=0;entryDy=0;" parent="nKgwXsxSmHK3FOkrXwd4-1" source="nKgwXsxSmHK3FOkrXwd4-43" target="nKgwXsxSmHK3FOkrXwd4-45" edge="1">
          <mxGeometry relative="1" as="geometry" />
        </mxCell>
        <mxCell id="nKgwXsxSmHK3FOkrXwd4-43" value="US2: Headers separating video types &amp;amp; articles" style="rounded=1;whiteSpace=wrap;html=1;" parent="nKgwXsxSmHK3FOkrXwd4-1" vertex="1">
          <mxGeometry x="170" y="140" width="120" height="60" as="geometry" />
        </mxCell>
        <mxCell id="nKgwXsxSmHK3FOkrXwd4-44" value="Click article thumbnail - go to external website" style="rounded=1;whiteSpace=wrap;html=1;" parent="nKgwXsxSmHK3FOkrXwd4-1" vertex="1">
          <mxGeometry x="20" y="230" width="120" height="60" as="geometry" />
        </mxCell>
        <mxCell id="nKgwXsxSmHK3FOkrXwd4-45" value="Vids &amp;amp; articles sorted by headers" style="rounded=1;whiteSpace=wrap;html=1;" parent="nKgwXsxSmHK3FOkrXwd4-1" vertex="1">
          <mxGeometry x="170" y="230" width="120" height="60" as="geometry" />
        </mxCell>
        <mxCell id="nKgwXsxSmHK3FOkrXwd4-46" value="US3: Horizontally scroll through different panels under a header" style="rounded=1;whiteSpace=wrap;html=1;" parent="nKgwXsxSmHK3FOkrXwd4-1" vertex="1">
          <mxGeometry x="310" y="140" width="120" height="60" as="geometry" />
        </mxCell>
        <mxCell id="Jfo_WnKo2UTMFBrQ0px7-18" style="edgeStyle=orthogonalEdgeStyle;rounded=0;orthogonalLoop=1;jettySize=auto;html=1;exitX=0.5;exitY=1;exitDx=0;exitDy=0;entryX=0.5;entryY=0;entryDx=0;entryDy=0;" parent="nKgwXsxSmHK3FOkrXwd4-1" source="nKgwXsxSmHK3FOkrXwd4-48" target="nKgwXsxSmHK3FOkrXwd4-49" edge="1">
          <mxGeometry relative="1" as="geometry" />
        </mxCell>
        <mxCell id="nKgwXsxSmHK3FOkrXwd4-48" value="US4: See featured videos on top ALL headers" style="rounded=1;whiteSpace=wrap;html=1;" parent="nKgwXsxSmHK3FOkrXwd4-1" vertex="1">
          <mxGeometry x="440" y="140" width="120" height="60" as="geometry" />
        </mxCell>
        <mxCell id="nKgwXsxSmHK3FOkrXwd4-49" value="&lt;font color=&quot;#ffffff&quot;&gt;Featured videos rotates between 5 thumbnails (like Netflix)&lt;/font&gt;" style="rounded=1;whiteSpace=wrap;html=1;" parent="nKgwXsxSmHK3FOkrXwd4-1" vertex="1">
          <mxGeometry x="440" y="230" width="120" height="60" as="geometry" />
        </mxCell>
        <mxCell id="ToLV5v_v35R6VbQru3yl-16" style="edgeStyle=orthogonalEdgeStyle;rounded=0;orthogonalLoop=1;jettySize=auto;html=1;exitX=0.5;exitY=1;exitDx=0;exitDy=0;entryX=0.5;entryY=0;entryDx=0;entryDy=0;fillColor=#60a917;strokeColor=#2D7600;" parent="nKgwXsxSmHK3FOkrXwd4-1" source="nKgwXsxSmHK3FOkrXwd4-50" target="ToLV5v_v35R6VbQru3yl-15" edge="1">
          <mxGeometry relative="1" as="geometry" />
        </mxCell>
        <mxCell id="nKgwXsxSmHK3FOkrXwd4-50" value="US5: Referrals ALSO have ALL content access" style="rounded=1;whiteSpace=wrap;html=1;" parent="nKgwXsxSmHK3FOkrXwd4-1" vertex="1">
          <mxGeometry x="570" y="140" width="120" height="60" as="geometry" />
        </mxCell>
        <mxCell id="nKgwXsxSmHK3FOkrXwd4-51" style="edgeStyle=orthogonalEdgeStyle;rounded=0;orthogonalLoop=1;jettySize=auto;html=1;exitX=0;exitY=1;exitDx=0;exitDy=0;entryX=0.5;entryY=0;entryDx=0;entryDy=0;" parent="nKgwXsxSmHK3FOkrXwd4-1" source="nKgwXsxSmHK3FOkrXwd4-52" target="nKgwXsxSmHK3FOkrXwd4-56" edge="1">
          <mxGeometry relative="1" as="geometry">
            <Array as="points">
              <mxPoint x="1275" y="130" />
              <mxPoint x="1335" y="130" />
            </Array>
          </mxGeometry>
        </mxCell>
        <mxCell id="57zCASRHw8Fnxd3AZzMY-2" style="edgeStyle=orthogonalEdgeStyle;rounded=0;orthogonalLoop=1;jettySize=auto;html=1;exitX=0.25;exitY=1;exitDx=0;exitDy=0;entryX=0.5;entryY=0;entryDx=0;entryDy=0;fillColor=#60a917;strokeColor=#2D7600;" parent="nKgwXsxSmHK3FOkrXwd4-1" source="nKgwXsxSmHK3FOkrXwd4-52" target="57zCASRHw8Fnxd3AZzMY-0" edge="1">
          <mxGeometry relative="1" as="geometry">
            <Array as="points">
              <mxPoint x="1305" y="120" />
              <mxPoint x="1470" y="120" />
            </Array>
          </mxGeometry>
        </mxCell>
        <mxCell id="57zCASRHw8Fnxd3AZzMY-6" style="edgeStyle=orthogonalEdgeStyle;rounded=0;orthogonalLoop=1;jettySize=auto;html=1;exitX=1;exitY=1;exitDx=0;exitDy=0;entryX=0.75;entryY=0;entryDx=0;entryDy=0;fillColor=#60a917;strokeColor=#2D7600;" parent="nKgwXsxSmHK3FOkrXwd4-1" source="nKgwXsxSmHK3FOkrXwd4-52" target="nKgwXsxSmHK3FOkrXwd4-59" edge="1">
          <mxGeometry relative="1" as="geometry">
            <Array as="points">
              <mxPoint x="1635" y="90" />
            </Array>
          </mxGeometry>
        </mxCell>
        <mxCell id="3VzI_QVFuLlT2L6lSIce-0" style="edgeStyle=orthogonalEdgeStyle;rounded=0;orthogonalLoop=1;jettySize=auto;html=1;exitX=1;exitY=0.75;exitDx=0;exitDy=0;entryX=0.5;entryY=0;entryDx=0;entryDy=0;fillColor=#f5f5f5;strokeColor=#ffffff;" parent="nKgwXsxSmHK3FOkrXwd4-1" source="nKgwXsxSmHK3FOkrXwd4-52" target="nKgwXsxSmHK3FOkrXwd4-5" edge="1">
          <mxGeometry relative="1" as="geometry">
            <Array as="points">
              <mxPoint x="1395" y="100" />
              <mxPoint x="1745" y="100" />
            </Array>
          </mxGeometry>
        </mxCell>
        <mxCell id="nKgwXsxSmHK3FOkrXwd4-52" value="Epic: Login" style="rounded=1;whiteSpace=wrap;html=1;" parent="nKgwXsxSmHK3FOkrXwd4-1" vertex="1">
          <mxGeometry x="1275" y="30" width="120" height="60" as="geometry" />
        </mxCell>
        <mxCell id="nKgwXsxSmHK3FOkrXwd4-53" style="edgeStyle=orthogonalEdgeStyle;rounded=0;orthogonalLoop=1;jettySize=auto;html=1;exitX=0.5;exitY=1;exitDx=0;exitDy=0;entryX=0.5;entryY=0;entryDx=0;entryDy=0;fillColor=#d80073;strokeColor=#A50040;dashed=1;" parent="nKgwXsxSmHK3FOkrXwd4-1" source="nKgwXsxSmHK3FOkrXwd4-56" edge="1">
          <mxGeometry relative="1" as="geometry">
            <Array as="points">
              <mxPoint x="1335" y="260" />
              <mxPoint x="1465" y="260" />
            </Array>
            <mxPoint x="1465" y="290" as="targetPoint" />
          </mxGeometry>
        </mxCell>
        <mxCell id="nKgwXsxSmHK3FOkrXwd4-54" style="edgeStyle=orthogonalEdgeStyle;rounded=0;orthogonalLoop=1;jettySize=auto;html=1;exitX=0.25;exitY=1;exitDx=0;exitDy=0;entryX=0.5;entryY=0;entryDx=0;entryDy=0;fillColor=#d80073;strokeColor=#A50040;dashed=1;" parent="nKgwXsxSmHK3FOkrXwd4-1" source="nKgwXsxSmHK3FOkrXwd4-56" target="nKgwXsxSmHK3FOkrXwd4-58" edge="1">
          <mxGeometry relative="1" as="geometry">
            <Array as="points">
              <mxPoint x="1305" y="370" />
              <mxPoint x="1770" y="370" />
            </Array>
          </mxGeometry>
        </mxCell>
        <mxCell id="nKgwXsxSmHK3FOkrXwd4-55" style="edgeStyle=orthogonalEdgeStyle;rounded=0;orthogonalLoop=1;jettySize=auto;html=1;exitX=1;exitY=1;exitDx=0;exitDy=0;entryX=0.5;entryY=0;entryDx=0;entryDy=0;fillColor=#d80073;strokeColor=#A50040;dashed=1;" parent="nKgwXsxSmHK3FOkrXwd4-1" source="nKgwXsxSmHK3FOkrXwd4-56" target="nKgwXsxSmHK3FOkrXwd4-59" edge="1">
          <mxGeometry relative="1" as="geometry">
            <Array as="points">
              <mxPoint x="1395" y="240" />
              <mxPoint x="1605" y="240" />
            </Array>
          </mxGeometry>
        </mxCell>
        <mxCell id="nKgwXsxSmHK3FOkrXwd4-56" value="US1.1 (Split): Delegate Login Step 1: Validate Email" style="rounded=1;whiteSpace=wrap;html=1;" parent="nKgwXsxSmHK3FOkrXwd4-1" vertex="1">
          <mxGeometry x="1275" y="150" width="120" height="60" as="geometry" />
        </mxCell>
        <mxCell id="nKgwXsxSmHK3FOkrXwd4-58" value="&lt;font color=&quot;#00ff00&quot;&gt;US (No Epic): Block CVP users from GenS Conf App&lt;/font&gt;" style="rounded=1;whiteSpace=wrap;html=1;" parent="nKgwXsxSmHK3FOkrXwd4-1" vertex="1">
          <mxGeometry x="1710" y="760" width="120" height="60" as="geometry" />
        </mxCell>
        <mxCell id="nKgwXsxSmHK3FOkrXwd4-59" value="&lt;font color=&quot;#00ff00&quot;&gt;US3 (NEW): Separate auth0 Sign-in page for Delegates &amp;amp; Referrals&lt;/font&gt;" style="rounded=1;whiteSpace=wrap;html=1;" parent="nKgwXsxSmHK3FOkrXwd4-1" vertex="1">
          <mxGeometry x="1545" y="290" width="120" height="60" as="geometry" />
        </mxCell>
        <mxCell id="nKgwXsxSmHK3FOkrXwd4-60" style="edgeStyle=orthogonalEdgeStyle;rounded=0;orthogonalLoop=1;jettySize=auto;html=1;exitX=0;exitY=1;exitDx=0;exitDy=0;entryX=0;entryY=0;entryDx=0;entryDy=0;" parent="nKgwXsxSmHK3FOkrXwd4-1" source="nKgwXsxSmHK3FOkrXwd4-65" target="nKgwXsxSmHK3FOkrXwd4-66" edge="1">
          <mxGeometry relative="1" as="geometry">
            <mxPoint x="390" y="620" as="targetPoint" />
          </mxGeometry>
        </mxCell>
        <mxCell id="nKgwXsxSmHK3FOkrXwd4-61" style="edgeStyle=orthogonalEdgeStyle;rounded=0;orthogonalLoop=1;jettySize=auto;html=1;exitX=0.093;exitY=0.998;exitDx=0;exitDy=0;entryX=0.5;entryY=0;entryDx=0;entryDy=0;exitPerimeter=0;" parent="nKgwXsxSmHK3FOkrXwd4-1" source="nKgwXsxSmHK3FOkrXwd4-65" target="nKgwXsxSmHK3FOkrXwd4-68" edge="1">
          <mxGeometry relative="1" as="geometry">
            <Array as="points">
              <mxPoint x="321" y="600" />
              <mxPoint x="510" y="600" />
            </Array>
          </mxGeometry>
        </mxCell>
        <mxCell id="nKgwXsxSmHK3FOkrXwd4-62" style="edgeStyle=orthogonalEdgeStyle;rounded=0;orthogonalLoop=1;jettySize=auto;html=1;exitX=0.25;exitY=1;exitDx=0;exitDy=0;entryX=0.5;entryY=0;entryDx=0;entryDy=0;" parent="nKgwXsxSmHK3FOkrXwd4-1" source="nKgwXsxSmHK3FOkrXwd4-65" target="nKgwXsxSmHK3FOkrXwd4-70" edge="1">
          <mxGeometry relative="1" as="geometry">
            <Array as="points">
              <mxPoint x="340" y="580" />
              <mxPoint x="640" y="580" />
            </Array>
          </mxGeometry>
        </mxCell>
        <mxCell id="nKgwXsxSmHK3FOkrXwd4-63" style="edgeStyle=orthogonalEdgeStyle;rounded=0;orthogonalLoop=1;jettySize=auto;html=1;exitX=0.363;exitY=1.015;exitDx=0;exitDy=0;entryX=0.922;entryY=0.001;entryDx=0;entryDy=0;exitPerimeter=0;entryPerimeter=0;" parent="nKgwXsxSmHK3FOkrXwd4-1" source="nKgwXsxSmHK3FOkrXwd4-65" target="nKgwXsxSmHK3FOkrXwd4-71" edge="1">
          <mxGeometry relative="1" as="geometry">
            <Array as="points">
              <mxPoint x="354" y="560" />
              <mxPoint x="720" y="560" />
              <mxPoint x="720" y="690" />
            </Array>
          </mxGeometry>
        </mxCell>
        <mxCell id="nKgwXsxSmHK3FOkrXwd4-64" style="edgeStyle=orthogonalEdgeStyle;rounded=0;orthogonalLoop=1;jettySize=auto;html=1;exitX=1;exitY=0;exitDx=0;exitDy=0;entryX=1;entryY=0;entryDx=0;entryDy=0;" parent="nKgwXsxSmHK3FOkrXwd4-1" source="nKgwXsxSmHK3FOkrXwd4-65" target="nKgwXsxSmHK3FOkrXwd4-73" edge="1">
          <mxGeometry relative="1" as="geometry" />
        </mxCell>
        <mxCell id="vT0dzgtBVvZX0NIE2-DS-5" style="edgeStyle=orthogonalEdgeStyle;rounded=0;orthogonalLoop=1;jettySize=auto;html=1;exitX=0.5;exitY=1;exitDx=0;exitDy=0;entryX=0.5;entryY=0;entryDx=0;entryDy=0;" parent="nKgwXsxSmHK3FOkrXwd4-1" edge="1">
          <mxGeometry relative="1" as="geometry">
            <mxPoint x="380" y="460" as="sourcePoint" />
            <mxPoint x="950" y="720" as="targetPoint" />
            <Array as="points">
              <mxPoint x="380" y="510" />
              <mxPoint x="870" y="510" />
              <mxPoint x="870" y="700" />
              <mxPoint x="950" y="700" />
            </Array>
          </mxGeometry>
        </mxCell>
        <mxCell id="Jfo_WnKo2UTMFBrQ0px7-0" style="edgeStyle=orthogonalEdgeStyle;rounded=0;orthogonalLoop=1;jettySize=auto;html=1;exitX=0.75;exitY=1;exitDx=0;exitDy=0;entryX=0.5;entryY=0;entryDx=0;entryDy=0;fillColor=#60a917;strokeColor=#2D7600;" parent="nKgwXsxSmHK3FOkrXwd4-1" source="nKgwXsxSmHK3FOkrXwd4-65" target="nKgwXsxSmHK3FOkrXwd4-28" edge="1">
          <mxGeometry relative="1" as="geometry" />
        </mxCell>
        <mxCell id="Jfo_WnKo2UTMFBrQ0px7-1" style="edgeStyle=orthogonalEdgeStyle;rounded=0;orthogonalLoop=1;jettySize=auto;html=1;exitX=1;exitY=1;exitDx=0;exitDy=0;entryX=0.5;entryY=0;entryDx=0;entryDy=0;fillColor=#60a917;strokeColor=#2D7600;" parent="nKgwXsxSmHK3FOkrXwd4-1" source="nKgwXsxSmHK3FOkrXwd4-65" target="vT0dzgtBVvZX0NIE2-DS-11" edge="1">
          <mxGeometry relative="1" as="geometry">
            <Array as="points">
              <mxPoint x="430" y="490" />
              <mxPoint x="1080" y="490" />
            </Array>
          </mxGeometry>
        </mxCell>
        <mxCell id="Jfo_WnKo2UTMFBrQ0px7-2" style="edgeStyle=orthogonalEdgeStyle;rounded=0;orthogonalLoop=1;jettySize=auto;html=1;exitX=0.5;exitY=1;exitDx=0;exitDy=0;entryX=0.5;entryY=0;entryDx=0;entryDy=0;" parent="nKgwXsxSmHK3FOkrXwd4-1" source="nKgwXsxSmHK3FOkrXwd4-65" target="nKgwXsxSmHK3FOkrXwd4-41" edge="1">
          <mxGeometry relative="1" as="geometry">
            <Array as="points">
              <mxPoint x="370" y="550" />
              <mxPoint x="800" y="550" />
            </Array>
          </mxGeometry>
        </mxCell>
        <mxCell id="Jfo_WnKo2UTMFBrQ0px7-3" style="edgeStyle=orthogonalEdgeStyle;rounded=0;orthogonalLoop=1;jettySize=auto;html=1;exitX=1;exitY=1;exitDx=0;exitDy=0;entryX=0.5;entryY=0;entryDx=0;entryDy=0;" parent="nKgwXsxSmHK3FOkrXwd4-1" source="nKgwXsxSmHK3FOkrXwd4-65" target="nKgwXsxSmHK3FOkrXwd4-37" edge="1">
          <mxGeometry relative="1" as="geometry">
            <Array as="points">
              <mxPoint x="430" y="480" />
              <mxPoint x="1215" y="480" />
            </Array>
          </mxGeometry>
        </mxCell>
        <mxCell id="Jfo_WnKo2UTMFBrQ0px7-5" style="edgeStyle=orthogonalEdgeStyle;rounded=0;orthogonalLoop=1;jettySize=auto;html=1;exitX=1;exitY=0.75;exitDx=0;exitDy=0;entryX=0.5;entryY=0;entryDx=0;entryDy=0;fillColor=#60a917;strokeColor=#2D7600;" parent="nKgwXsxSmHK3FOkrXwd4-1" source="nKgwXsxSmHK3FOkrXwd4-65" target="Jfo_WnKo2UTMFBrQ0px7-4" edge="1">
          <mxGeometry relative="1" as="geometry">
            <Array as="points">
              <mxPoint x="430" y="460" />
              <mxPoint x="1345" y="460" />
            </Array>
          </mxGeometry>
        </mxCell>
        <mxCell id="Jfo_WnKo2UTMFBrQ0px7-8" style="edgeStyle=orthogonalEdgeStyle;rounded=0;orthogonalLoop=1;jettySize=auto;html=1;exitX=1;exitY=0.75;exitDx=0;exitDy=0;entryX=1;entryY=0;entryDx=0;entryDy=0;fillColor=#60a917;strokeColor=#2D7600;" parent="nKgwXsxSmHK3FOkrXwd4-1" source="nKgwXsxSmHK3FOkrXwd4-65" target="Jfo_WnKo2UTMFBrQ0px7-7" edge="1">
          <mxGeometry relative="1" as="geometry" />
        </mxCell>
        <mxCell id="Jfo_WnKo2UTMFBrQ0px7-10" style="edgeStyle=orthogonalEdgeStyle;rounded=0;orthogonalLoop=1;jettySize=auto;html=1;exitX=1;exitY=0.5;exitDx=0;exitDy=0;entryX=1;entryY=0;entryDx=0;entryDy=0;fillColor=#60a917;strokeColor=#2D7600;" parent="nKgwXsxSmHK3FOkrXwd4-1" source="nKgwXsxSmHK3FOkrXwd4-65" target="Jfo_WnKo2UTMFBrQ0px7-9" edge="1">
          <mxGeometry relative="1" as="geometry" />
        </mxCell>
        <mxCell id="Jfo_WnKo2UTMFBrQ0px7-12" style="edgeStyle=orthogonalEdgeStyle;rounded=0;orthogonalLoop=1;jettySize=auto;html=1;exitX=1;exitY=0.25;exitDx=0;exitDy=0;entryX=1;entryY=0;entryDx=0;entryDy=0;fillColor=#60a917;strokeColor=#2D7600;" parent="nKgwXsxSmHK3FOkrXwd4-1" source="nKgwXsxSmHK3FOkrXwd4-65" target="Jfo_WnKo2UTMFBrQ0px7-11" edge="1">
          <mxGeometry relative="1" as="geometry" />
        </mxCell>
        <mxCell id="Jfo_WnKo2UTMFBrQ0px7-17" style="edgeStyle=orthogonalEdgeStyle;rounded=0;orthogonalLoop=1;jettySize=auto;html=1;exitX=1;exitY=0;exitDx=0;exitDy=0;entryX=0.5;entryY=0;entryDx=0;entryDy=0;fillColor=#60a917;strokeColor=#2D7600;" parent="nKgwXsxSmHK3FOkrXwd4-1" source="nKgwXsxSmHK3FOkrXwd4-65" target="Jfo_WnKo2UTMFBrQ0px7-16" edge="1">
          <mxGeometry relative="1" as="geometry">
            <Array as="points">
              <mxPoint x="1540" y="400" />
            </Array>
          </mxGeometry>
        </mxCell>
        <mxCell id="nKgwXsxSmHK3FOkrXwd4-65" value="Epic: Video Page" style="rounded=1;whiteSpace=wrap;html=1;" parent="nKgwXsxSmHK3FOkrXwd4-1" vertex="1">
          <mxGeometry x="310" y="400" width="120" height="60" as="geometry" />
        </mxCell>
        <mxCell id="nKgwXsxSmHK3FOkrXwd4-66" value="US1: Video immediately starts playing after click on vid thumbnail from home page" style="rounded=1;whiteSpace=wrap;html=1;" parent="nKgwXsxSmHK3FOkrXwd4-1" vertex="1">
          <mxGeometry x="310" y="620" width="120" height="60" as="geometry" />
        </mxCell>
        <mxCell id="nKgwXsxSmHK3FOkrXwd4-67" style="edgeStyle=orthogonalEdgeStyle;rounded=0;orthogonalLoop=1;jettySize=auto;html=1;exitX=0.5;exitY=1;exitDx=0;exitDy=0;entryX=0.5;entryY=0;entryDx=0;entryDy=0;" parent="nKgwXsxSmHK3FOkrXwd4-1" source="nKgwXsxSmHK3FOkrXwd4-68" target="nKgwXsxSmHK3FOkrXwd4-69" edge="1">
          <mxGeometry relative="1" as="geometry" />
        </mxCell>
        <mxCell id="nKgwXsxSmHK3FOkrXwd4-68" value="US2: Choose closed captions" style="rounded=1;whiteSpace=wrap;html=1;" parent="nKgwXsxSmHK3FOkrXwd4-1" vertex="1">
          <mxGeometry x="450" y="620" width="120" height="60" as="geometry" />
        </mxCell>
        <mxCell id="nKgwXsxSmHK3FOkrXwd4-69" value="When click button, List of langs, including OFF" style="rounded=1;whiteSpace=wrap;html=1;" parent="nKgwXsxSmHK3FOkrXwd4-1" vertex="1">
          <mxGeometry x="450" y="700" width="120" height="60" as="geometry" />
        </mxCell>
        <mxCell id="nKgwXsxSmHK3FOkrXwd4-70" value="US3: Change playback speed" style="rounded=1;whiteSpace=wrap;html=1;" parent="nKgwXsxSmHK3FOkrXwd4-1" vertex="1">
          <mxGeometry x="580" y="620" width="120" height="60" as="geometry" />
        </mxCell>
        <mxCell id="nKgwXsxSmHK3FOkrXwd4-71" value="US4.1: Delegates can share video link (User shown URL link to copy)" style="rounded=1;whiteSpace=wrap;html=1;" parent="nKgwXsxSmHK3FOkrXwd4-1" vertex="1">
          <mxGeometry x="610" y="690" width="120" height="60" as="geometry" />
        </mxCell>
        <mxCell id="nKgwXsxSmHK3FOkrXwd4-72" style="edgeStyle=orthogonalEdgeStyle;rounded=0;orthogonalLoop=1;jettySize=auto;html=1;exitX=0.5;exitY=1;exitDx=0;exitDy=0;entryX=0.5;entryY=0;entryDx=0;entryDy=0;" parent="nKgwXsxSmHK3FOkrXwd4-1" source="nKgwXsxSmHK3FOkrXwd4-73" target="nKgwXsxSmHK3FOkrXwd4-74" edge="1">
          <mxGeometry relative="1" as="geometry" />
        </mxCell>
        <mxCell id="nKgwXsxSmHK3FOkrXwd4-73" value="US13: Blurred, paused video if not signed up" style="rounded=1;whiteSpace=wrap;html=1;" parent="nKgwXsxSmHK3FOkrXwd4-1" vertex="1">
          <mxGeometry x="1500" y="630" width="120" height="60" as="geometry" />
        </mxCell>
        <mxCell id="nKgwXsxSmHK3FOkrXwd4-74" value="Login/Sign in prompt appears in front of blurred video" style="rounded=1;whiteSpace=wrap;html=1;" parent="nKgwXsxSmHK3FOkrXwd4-1" vertex="1">
          <mxGeometry x="1500" y="710" width="120" height="60" as="geometry" />
        </mxCell>
        <mxCell id="57zCASRHw8Fnxd3AZzMY-0" value="US1.2 (Split): Delegate Login Step 2: Send OTP via the (already validated) email" style="rounded=1;whiteSpace=wrap;html=1;" parent="nKgwXsxSmHK3FOkrXwd4-1" vertex="1">
          <mxGeometry x="1410" y="150" width="120" height="60" as="geometry" />
        </mxCell>
        <mxCell id="57zCASRHw8Fnxd3AZzMY-3" value="&lt;font color=&quot;#ff0000&quot;&gt;Make all into new User Stories&lt;/font&gt;" style="text;html=1;strokeColor=none;fillColor=none;align=center;verticalAlign=middle;whiteSpace=wrap;rounded=0;" parent="nKgwXsxSmHK3FOkrXwd4-1" vertex="1">
          <mxGeometry x="1325" y="260" width="100" height="30" as="geometry" />
        </mxCell>
        <mxCell id="pGSdhCAIzBHovDCT8AcJ-2" style="edgeStyle=orthogonalEdgeStyle;rounded=0;orthogonalLoop=1;jettySize=auto;html=1;exitX=0.5;exitY=1;exitDx=0;exitDy=0;entryX=0.5;entryY=0;entryDx=0;entryDy=0;fillColor=#60a917;strokeColor=#2D7600;" parent="nKgwXsxSmHK3FOkrXwd4-1" source="ZVlprzU81_w9RIkFhCwq-0" target="pGSdhCAIzBHovDCT8AcJ-0" edge="1">
          <mxGeometry relative="1" as="geometry">
            <Array as="points">
              <mxPoint x="1915" y="120" />
              <mxPoint x="2065" y="120" />
            </Array>
          </mxGeometry>
        </mxCell>
        <mxCell id="ToLV5v_v35R6VbQru3yl-2" style="edgeStyle=orthogonalEdgeStyle;rounded=0;orthogonalLoop=1;jettySize=auto;html=1;exitX=0.75;exitY=1;exitDx=0;exitDy=0;entryX=0.5;entryY=0;entryDx=0;entryDy=0;fillColor=#60a917;strokeColor=#2D7600;" parent="nKgwXsxSmHK3FOkrXwd4-1" source="ZVlprzU81_w9RIkFhCwq-0" target="ToLV5v_v35R6VbQru3yl-1" edge="1">
          <mxGeometry relative="1" as="geometry">
            <Array as="points">
              <mxPoint x="1945" y="110" />
              <mxPoint x="2205" y="110" />
            </Array>
          </mxGeometry>
        </mxCell>
        <mxCell id="ToLV5v_v35R6VbQru3yl-6" style="edgeStyle=orthogonalEdgeStyle;rounded=0;orthogonalLoop=1;jettySize=auto;html=1;exitX=1;exitY=1;exitDx=0;exitDy=0;fillColor=#60a917;strokeColor=#2D7600;" parent="nKgwXsxSmHK3FOkrXwd4-1" source="ZVlprzU81_w9RIkFhCwq-0" target="ToLV5v_v35R6VbQru3yl-5" edge="1">
          <mxGeometry relative="1" as="geometry">
            <Array as="points">
              <mxPoint x="2345" y="90" />
            </Array>
          </mxGeometry>
        </mxCell>
        <mxCell id="ToLV5v_v35R6VbQru3yl-14" style="edgeStyle=orthogonalEdgeStyle;rounded=0;orthogonalLoop=1;jettySize=auto;html=1;exitX=1;exitY=0.75;exitDx=0;exitDy=0;entryX=0.5;entryY=0;entryDx=0;entryDy=0;fillColor=#60a917;strokeColor=#2D7600;" parent="nKgwXsxSmHK3FOkrXwd4-1" source="ZVlprzU81_w9RIkFhCwq-0" target="ToLV5v_v35R6VbQru3yl-11" edge="1">
          <mxGeometry relative="1" as="geometry" />
        </mxCell>
        <mxCell id="ZVlprzU81_w9RIkFhCwq-0" value="&lt;font color=&quot;#00ff00&quot;&gt;NEW Epic: Sign Up&lt;/font&gt;" style="rounded=1;whiteSpace=wrap;html=1;" parent="nKgwXsxSmHK3FOkrXwd4-1" vertex="1">
          <mxGeometry x="1855" y="30" width="120" height="60" as="geometry" />
        </mxCell>
        <mxCell id="pGSdhCAIzBHovDCT8AcJ-1" style="edgeStyle=orthogonalEdgeStyle;rounded=0;orthogonalLoop=1;jettySize=auto;html=1;exitX=0.5;exitY=1;exitDx=0;exitDy=0;fillColor=#60a917;strokeColor=#2D7600;" parent="nKgwXsxSmHK3FOkrXwd4-1" source="pGSdhCAIzBHovDCT8AcJ-0" target="nKgwXsxSmHK3FOkrXwd4-35" edge="1">
          <mxGeometry relative="1" as="geometry" />
        </mxCell>
        <mxCell id="pGSdhCAIzBHovDCT8AcJ-0" value="&lt;font color=&quot;#00ff00&quot;&gt;US1 (NEW): Sign Up Page&lt;/font&gt;" style="rounded=1;whiteSpace=wrap;html=1;" parent="nKgwXsxSmHK3FOkrXwd4-1" vertex="1">
          <mxGeometry x="2005" y="150" width="120" height="60" as="geometry" />
        </mxCell>
        <mxCell id="ToLV5v_v35R6VbQru3yl-0" value="&lt;font color=&quot;#ff0000&quot;&gt;Throw away, repeated&lt;/font&gt;" style="text;html=1;strokeColor=none;fillColor=none;align=center;verticalAlign=middle;whiteSpace=wrap;rounded=0;" parent="nKgwXsxSmHK3FOkrXwd4-1" vertex="1">
          <mxGeometry x="1855" y="120" width="100" height="30" as="geometry" />
        </mxCell>
        <mxCell id="ToLV5v_v35R6VbQru3yl-4" style="edgeStyle=orthogonalEdgeStyle;rounded=0;orthogonalLoop=1;jettySize=auto;html=1;exitX=0.5;exitY=1;exitDx=0;exitDy=0;entryX=0.5;entryY=0;entryDx=0;entryDy=0;fillColor=#60a917;strokeColor=#2D7600;" parent="nKgwXsxSmHK3FOkrXwd4-1" source="ToLV5v_v35R6VbQru3yl-1" target="ToLV5v_v35R6VbQru3yl-3" edge="1">
          <mxGeometry relative="1" as="geometry" />
        </mxCell>
        <mxCell id="ToLV5v_v35R6VbQru3yl-1" value="&lt;font color=&quot;#00ff00&quot;&gt;US2 (NEW): T&amp;amp;Cs + Privacy Policy&lt;/font&gt;" style="rounded=1;whiteSpace=wrap;html=1;" parent="nKgwXsxSmHK3FOkrXwd4-1" vertex="1">
          <mxGeometry x="2145" y="150" width="120" height="60" as="geometry" />
        </mxCell>
        <mxCell id="ToLV5v_v35R6VbQru3yl-3" value="&lt;font color=&quot;#00ff00&quot;&gt;Brings to External page with T&amp;amp;Cs &amp;amp; Privacy Policy (hogc.org?)&lt;/font&gt;" style="rounded=1;whiteSpace=wrap;html=1;" parent="nKgwXsxSmHK3FOkrXwd4-1" vertex="1">
          <mxGeometry x="2145" y="245" width="120" height="60" as="geometry" />
        </mxCell>
        <mxCell id="ToLV5v_v35R6VbQru3yl-8" style="edgeStyle=orthogonalEdgeStyle;rounded=0;orthogonalLoop=1;jettySize=auto;html=1;exitX=0.5;exitY=1;exitDx=0;exitDy=0;entryX=0.5;entryY=0;entryDx=0;entryDy=0;" parent="nKgwXsxSmHK3FOkrXwd4-1" source="ToLV5v_v35R6VbQru3yl-5" target="ToLV5v_v35R6VbQru3yl-7" edge="1">
          <mxGeometry relative="1" as="geometry" />
        </mxCell>
        <mxCell id="ToLV5v_v35R6VbQru3yl-5" value="&lt;font color=&quot;#00ff00&quot;&gt;US3 (KIV): Continue button - Email Verification&lt;/font&gt;" style="rounded=1;whiteSpace=wrap;html=1;" parent="nKgwXsxSmHK3FOkrXwd4-1" vertex="1">
          <mxGeometry x="2285" y="150" width="120" height="60" as="geometry" />
        </mxCell>
        <mxCell id="ToLV5v_v35R6VbQru3yl-7" value="&lt;font color=&quot;#00ff00&quot;&gt;Receive OTP via email&lt;/font&gt;" style="rounded=1;whiteSpace=wrap;html=1;" parent="nKgwXsxSmHK3FOkrXwd4-1" vertex="1">
          <mxGeometry x="2285" y="245" width="120" height="60" as="geometry" />
        </mxCell>
        <mxCell id="ToLV5v_v35R6VbQru3yl-13" style="edgeStyle=orthogonalEdgeStyle;rounded=0;orthogonalLoop=1;jettySize=auto;html=1;exitX=0.5;exitY=1;exitDx=0;exitDy=0;entryX=0.5;entryY=0;entryDx=0;entryDy=0;" parent="nKgwXsxSmHK3FOkrXwd4-1" source="ToLV5v_v35R6VbQru3yl-11" target="ToLV5v_v35R6VbQru3yl-12" edge="1">
          <mxGeometry relative="1" as="geometry" />
        </mxCell>
        <mxCell id="ToLV5v_v35R6VbQru3yl-11" value="&lt;font color=&quot;#00ff00&quot;&gt;US4 (KIV): Sign Up Success Page/?&lt;/font&gt;" style="rounded=1;whiteSpace=wrap;html=1;" parent="nKgwXsxSmHK3FOkrXwd4-1" vertex="1">
          <mxGeometry x="2425" y="150" width="120" height="60" as="geometry" />
        </mxCell>
        <mxCell id="ToLV5v_v35R6VbQru3yl-12" value="&lt;font color=&quot;#00ff00&quot;&gt;Go to Home Page&lt;br&gt;&lt;/font&gt;" style="rounded=1;whiteSpace=wrap;html=1;" parent="nKgwXsxSmHK3FOkrXwd4-1" vertex="1">
          <mxGeometry x="2425" y="245" width="120" height="60" as="geometry" />
        </mxCell>
        <mxCell id="ToLV5v_v35R6VbQru3yl-15" value="&lt;font color=&quot;#00ff00&quot;&gt;Ensure auth0 gives them same level of resource access (?)&lt;/font&gt;" style="rounded=1;whiteSpace=wrap;html=1;" parent="nKgwXsxSmHK3FOkrXwd4-1" vertex="1">
          <mxGeometry x="570" y="230" width="120" height="60" as="geometry" />
        </mxCell>
        <mxCell id="vT0dzgtBVvZX0NIE2-DS-0" value="&lt;font color=&quot;#00ff00&quot;&gt;US6 (NEW): Re-direct Home Page to Sign In Page (if not signed in)&lt;/font&gt;" style="rounded=1;whiteSpace=wrap;html=1;" parent="nKgwXsxSmHK3FOkrXwd4-1" vertex="1">
          <mxGeometry x="700" y="140" width="120" height="60" as="geometry" />
        </mxCell>
        <mxCell id="vT0dzgtBVvZX0NIE2-DS-3" style="edgeStyle=orthogonalEdgeStyle;rounded=0;orthogonalLoop=1;jettySize=auto;html=1;exitX=0.5;exitY=1;exitDx=0;exitDy=0;entryX=0.5;entryY=0;entryDx=0;entryDy=0;fillColor=#60a917;strokeColor=#2D7600;" parent="nKgwXsxSmHK3FOkrXwd4-1" source="vT0dzgtBVvZX0NIE2-DS-2" target="nKgwXsxSmHK3FOkrXwd4-22" edge="1">
          <mxGeometry relative="1" as="geometry" />
        </mxCell>
        <mxCell id="vT0dzgtBVvZX0NIE2-DS-4" style="edgeStyle=orthogonalEdgeStyle;rounded=0;orthogonalLoop=1;jettySize=auto;html=1;exitX=0.75;exitY=1;exitDx=0;exitDy=0;entryX=0.5;entryY=0;entryDx=0;entryDy=0;fillColor=#60a917;strokeColor=#2D7600;" parent="nKgwXsxSmHK3FOkrXwd4-1" source="vT0dzgtBVvZX0NIE2-DS-2" target="nKgwXsxSmHK3FOkrXwd4-25" edge="1">
          <mxGeometry relative="1" as="geometry" />
        </mxCell>
        <mxCell id="Jfo_WnKo2UTMFBrQ0px7-20" style="edgeStyle=orthogonalEdgeStyle;rounded=0;orthogonalLoop=1;jettySize=auto;html=1;exitX=1;exitY=1;exitDx=0;exitDy=0;entryX=0.5;entryY=0;entryDx=0;entryDy=0;fillColor=#60a917;strokeColor=#2D7600;" parent="nKgwXsxSmHK3FOkrXwd4-1" source="vT0dzgtBVvZX0NIE2-DS-2" target="Jfo_WnKo2UTMFBrQ0px7-19" edge="1">
          <mxGeometry relative="1" as="geometry">
            <Array as="points">
              <mxPoint x="2275" y="530" />
              <mxPoint x="2480" y="530" />
            </Array>
          </mxGeometry>
        </mxCell>
        <mxCell id="vT0dzgtBVvZX0NIE2-DS-2" value="&lt;font color=&quot;#00ff00&quot;&gt;NEW Epic:&lt;br&gt;Profile Page&lt;/font&gt;" style="rounded=1;whiteSpace=wrap;html=1;" parent="nKgwXsxSmHK3FOkrXwd4-1" vertex="1">
          <mxGeometry x="2155" y="460" width="120" height="60" as="geometry" />
        </mxCell>
        <mxCell id="vT0dzgtBVvZX0NIE2-DS-6" value="&lt;font color=&quot;#ff0000&quot;&gt;Throw away, repeated&lt;/font&gt;" style="text;html=1;strokeColor=none;fillColor=none;align=center;verticalAlign=middle;whiteSpace=wrap;rounded=0;" parent="nKgwXsxSmHK3FOkrXwd4-1" vertex="1">
          <mxGeometry x="890" y="950" width="100" height="30" as="geometry" />
        </mxCell>
        <mxCell id="vT0dzgtBVvZX0NIE2-DS-7" value="&lt;font color=&quot;#00ff00&quot;&gt;&amp;nbsp;US10: Share complementary resources to social media platforms and msg platforms&lt;/font&gt;" style="rounded=1;whiteSpace=wrap;html=1;" parent="nKgwXsxSmHK3FOkrXwd4-1" vertex="1">
          <mxGeometry x="1010" y="810" width="120" height="60" as="geometry" />
        </mxCell>
        <mxCell id="vT0dzgtBVvZX0NIE2-DS-9" value="A horizontal scroller that has thumbnails of each chapter" style="rounded=1;whiteSpace=wrap;html=1;" parent="nKgwXsxSmHK3FOkrXwd4-1" vertex="1">
          <mxGeometry x="880" y="630" width="120" height="60" as="geometry" />
        </mxCell>
        <mxCell id="vT0dzgtBVvZX0NIE2-DS-13" style="edgeStyle=orthogonalEdgeStyle;rounded=0;orthogonalLoop=1;jettySize=auto;html=1;exitX=0.5;exitY=1;exitDx=0;exitDy=0;entryX=0.5;entryY=0;entryDx=0;entryDy=0;fillColor=#60a917;strokeColor=#2D7600;" parent="nKgwXsxSmHK3FOkrXwd4-1" source="vT0dzgtBVvZX0NIE2-DS-11" target="vT0dzgtBVvZX0NIE2-DS-12" edge="1">
          <mxGeometry relative="1" as="geometry" />
        </mxCell>
        <mxCell id="vT0dzgtBVvZX0NIE2-DS-11" value="US6.2 (Not for now): Seekbar segmented by chapters" style="rounded=1;whiteSpace=wrap;html=1;" parent="nKgwXsxSmHK3FOkrXwd4-1" vertex="1">
          <mxGeometry x="1020" y="550" width="120" height="60" as="geometry" />
        </mxCell>
        <mxCell id="vT0dzgtBVvZX0NIE2-DS-12" value="The title of each chapter appears near seekbar" style="rounded=1;whiteSpace=wrap;html=1;" parent="nKgwXsxSmHK3FOkrXwd4-1" vertex="1">
          <mxGeometry x="1020" y="630" width="120" height="60" as="geometry" />
        </mxCell>
        <mxCell id="Jfo_WnKo2UTMFBrQ0px7-4" value="&lt;font color=&quot;#00ff00&quot;&gt;US8 (NEW): Able to enter fullscreen mode&lt;/font&gt;" style="rounded=1;whiteSpace=wrap;html=1;" parent="nKgwXsxSmHK3FOkrXwd4-1" vertex="1">
          <mxGeometry x="1285" y="550" width="120" height="60" as="geometry" />
        </mxCell>
        <mxCell id="Jfo_WnKo2UTMFBrQ0px7-6" value="&lt;font color=&quot;#00ff00&quot;&gt;US? (KIV, Not for now): When change Audio Track, closed captions change to same lang&lt;/font&gt;" style="rounded=1;whiteSpace=wrap;html=1;" parent="nKgwXsxSmHK3FOkrXwd4-1" vertex="1">
          <mxGeometry x="1285" y="890" width="120" height="60" as="geometry" />
        </mxCell>
        <mxCell id="Jfo_WnKo2UTMFBrQ0px7-7" value="&lt;font color=&quot;#00ff00&quot;&gt;US9 (NEW): Able to Play/Pause at will&lt;/font&gt;" style="rounded=1;whiteSpace=wrap;html=1;" parent="nKgwXsxSmHK3FOkrXwd4-1" vertex="1">
          <mxGeometry x="1305" y="630" width="120" height="60" as="geometry" />
        </mxCell>
        <mxCell id="Jfo_WnKo2UTMFBrQ0px7-9" value="&lt;font color=&quot;#00ff00&quot;&gt;US10 (NEW): Able to scrub seekbar&lt;/font&gt;" style="rounded=1;whiteSpace=wrap;html=1;" parent="nKgwXsxSmHK3FOkrXwd4-1" vertex="1">
          <mxGeometry x="1325" y="710" width="120" height="60" as="geometry" />
        </mxCell>
        <mxCell id="Jfo_WnKo2UTMFBrQ0px7-11" value="&lt;font color=&quot;#00ff00&quot;&gt;US11 (Not for now): Next button goes to ???&lt;/font&gt;" style="rounded=1;whiteSpace=wrap;html=1;" parent="nKgwXsxSmHK3FOkrXwd4-1" vertex="1">
          <mxGeometry x="1350" y="800" width="120" height="60" as="geometry" />
        </mxCell>
        <mxCell id="Jfo_WnKo2UTMFBrQ0px7-15" style="edgeStyle=orthogonalEdgeStyle;rounded=0;orthogonalLoop=1;jettySize=auto;html=1;exitX=0.5;exitY=1;exitDx=0;exitDy=0;entryX=0.5;entryY=0;entryDx=0;entryDy=0;" parent="nKgwXsxSmHK3FOkrXwd4-1" source="Jfo_WnKo2UTMFBrQ0px7-13" target="Jfo_WnKo2UTMFBrQ0px7-14" edge="1">
          <mxGeometry relative="1" as="geometry" />
        </mxCell>
        <mxCell id="Jfo_WnKo2UTMFBrQ0px7-13" value="&lt;font color=&quot;#00ff00&quot;&gt;US? (Not for now, KIV): Adjust sync between vid and cc + voice&lt;/font&gt;" style="rounded=1;whiteSpace=wrap;html=1;" parent="nKgwXsxSmHK3FOkrXwd4-1" vertex="1">
          <mxGeometry x="1440" y="890" width="120" height="60" as="geometry" />
        </mxCell>
        <mxCell id="Jfo_WnKo2UTMFBrQ0px7-14" value="&lt;font color=&quot;#00ff00&quot;&gt;So that users can see and process info before they hear it, or to better sync the delay between Eng and LiveVoice&lt;/font&gt;" style="rounded=1;whiteSpace=wrap;html=1;" parent="nKgwXsxSmHK3FOkrXwd4-1" vertex="1">
          <mxGeometry x="1440" y="980" width="120" height="60" as="geometry" />
        </mxCell>
        <mxCell id="Jfo_WnKo2UTMFBrQ0px7-16" value="&lt;font color=&quot;#00ff00&quot;&gt;US12 (NEW): Title and description of video - Includes Read More&lt;/font&gt;" style="rounded=1;whiteSpace=wrap;html=1;" parent="nKgwXsxSmHK3FOkrXwd4-1" vertex="1">
          <mxGeometry x="1480" y="550" width="120" height="60" as="geometry" />
        </mxCell>
        <mxCell id="Jfo_WnKo2UTMFBrQ0px7-19" value="&lt;font color=&quot;#00ff00&quot;&gt;US3 (KIV): Re-direct Profile Page to Sign In page (if not signed in) - Create first, but emphasis it is KIV, put in PM in Progress&lt;/font&gt;" style="rounded=1;whiteSpace=wrap;html=1;" parent="nKgwXsxSmHK3FOkrXwd4-1" vertex="1">
          <mxGeometry x="2420" y="560" width="120" height="60" as="geometry" />
        </mxCell>
        <mxCell id="NYqBKowEck3tmRpVQEfw-3" value="&lt;font color=&quot;#00ff00&quot;&gt;US10 (KIV): Share referral with friends&lt;/font&gt;" style="rounded=1;whiteSpace=wrap;html=1;" parent="nKgwXsxSmHK3FOkrXwd4-1" vertex="1">
          <mxGeometry x="1000" y="140" width="120" height="60" as="geometry" />
        </mxCell>
        <mxCell id="NYqBKowEck3tmRpVQEfw-4" value="&lt;font color=&quot;#00ff00&quot;&gt;US11 (KIV): User + Global Impact&lt;/font&gt;" style="rounded=1;whiteSpace=wrap;html=1;" parent="nKgwXsxSmHK3FOkrXwd4-1" vertex="1">
          <mxGeometry x="1020" y="210" width="120" height="60" as="geometry" />
        </mxCell>
        <mxCell id="NYqBKowEck3tmRpVQEfw-7" value="User Stories without Epics" style="rounded=1;whiteSpace=wrap;html=1;" parent="nKgwXsxSmHK3FOkrXwd4-1" vertex="1">
          <mxGeometry x="1845" y="680" width="120" height="60" as="geometry" />
        </mxCell>
        <mxCell id="98Gzq5yHS3ZVWXLsK--5-0" value="&lt;font color=&quot;#00ff00&quot;&gt;US10 (NEW): Spotlight only for first login, details CVP (About, etc etc)&lt;/font&gt;" style="rounded=1;whiteSpace=wrap;html=1;" vertex="1" parent="nKgwXsxSmHK3FOkrXwd4-1">
          <mxGeometry x="1050" y="280" width="120" height="60" as="geometry" />
        </mxCell>
      </root>
    </mxGraphModel>
  </diagram>
</mxfile>
